{"glyphs":{"0":{"ha":1151,"x_min":0,"x_max":0,"o":"m 575 -21 b 83 531 253 -21 83 167 b 575 1076 83 894 253 1076 b 1068 531 899 1076 1068 894 b 575 -21 1068 167 899 -21 m 965 543 b 932 689 1013 600 999 663 l 406 900 b 247 742 294 944 207 872 l 435 143 b 599 100 457 71 546 38 "},"1":{"ha":629,"x_min":0,"x_max":0,"o":"m 519 207 b 339 -21 521 44 467 -21 b 208 251 193 -21 158 115 l 444 892 b 360 967 479 985 403 1019 l 260 846 b 14 907 172 740 19 785 b 161 1056 10 986 58 1056 l 394 1056 b 515 917 456 1056 515 1029 "},"2":{"ha":1157,"x_min":0,"x_max":0,"o":"m 1022 715 b 747 453 1022 544 919 413 l 597 488 b 297 415 476 515 393 488 b 315 254 207 347 228 271 l 878 150 b 972 249 971 133 1004 201 l 924 321 b 972 453 863 411 929 453 b 1067 321 1038 453 1067 399 b 676 0 1067 89 847 0 l 374 0 b 99 210 213 0 99 82 b 254 460 99 338 160 396 l 856 867 b 801 986 919 910 885 954 b 578 963 731 1014 632 1011 l 299 708 b 90 760 193 611 90 663 b 639 1075 90 894 375 1075 b 1022 715 967 1075 1022 950 "},"3":{"ha":1138,"x_min":0,"x_max":0,"o":"m 814 511 b 1068 374 950 567 1068 500 b 410 -22 1068 121 765 -22 b 76 122 161 -22 76 35 b 204 199 76 167 100 208 l 815 144 b 932 214 896 138 932 175 b 815 293 932 254 900 282 l 318 354 b 176 497 213 367 176 431 b 318 653 176 549 196 614 l 860 825 b 936 908 925 846 936 874 b 858 950 935 953 893 960 l 374 807 b 78 901 275 778 89 714 b 276 1056 71 1013 161 1056 l 792 1056 b 1013 896 939 1056 1013 988 b 914 749 1013 844 976 793 l 500 461 b 536 397 444 422 472 371 "},"4":{"ha":1121,"x_min":0,"x_max":0,"o":"m 906 -21 b 774 121 800 -21 774 53 b 790 221 774 161 782 200 l 857 386 b 869 500 881 444 901 483 b 774 447 846 513 822 489 l 308 50 b 143 -21 256 6 183 -21 b 42 79 82 -21 42 17 b 81 204 42 114 54 156 l 474 907 b 708 1076 531 1008 622 1076 b 872 914 799 1076 872 1010 b 801 786 872 867 849 819 l 290 429 b 247 365 260 408 247 385 b 288 328 247 343 264 328 b 321 336 297 328 308 331 l 790 554 b 982 464 872 592 950 551 l 1053 274 b 1079 142 1069 229 1079 183 b 906 -21 1079 51 1032 -21 "},"5":{"ha":1107,"x_min":0,"x_max":0,"o":"m 833 1054 b 993 901 956 1054 993 986 b 707 824 993 792 851 694 l 582 935 b 418 886 493 1014 468 976 l 214 515 b 267 456 192 474 229 438 l 679 660 b 1010 365 940 789 1010 588 b 464 -21 1010 97 793 -21 b 122 236 226 -21 61 79 b 324 267 164 343 271 336 l 464 83 b 601 81 503 32 549 35 l 910 350 b 869 436 949 385 938 442 l 296 389 b 128 599 153 378 124 457 l 135 878 b 442 1054 138 1001 190 1054 "},"6":{"ha":1189,"x_min":0,"x_max":0,"o":"m 525 994 b 669 1078 568 1053 622 1078 b 815 960 749 1078 815 1029 b 758 842 815 925 790 878 l 646 711 b 686 642 615 676 633 642 l 856 642 b 1119 361 1054 642 1119 507 b 599 -21 1119 82 840 -21 b 83 281 279 -21 83 81 b 201 556 83 367 122 449 m 958 213 b 1040 263 1022 213 1040 238 b 1006 306 1040 278 1028 289 l 683 547 b 500 551 604 607 561 604 l 201 294 b 179 250 188 282 179 264 b 233 207 179 226 197 207 "},"7":{"ha":999,"x_min":0,"x_max":0,"o":"m 657 828 b 689 972 715 899 719 947 b 560 956 664 992 619 1001 l 368 810 b 179 731 281 743 215 731 b 21 883 111 731 31 751 b 250 1056 11 1007 114 1056 l 732 1056 b 999 901 842 1056 999 1033 b 806 671 999 817 939 733 l 536 544 b 472 399 465 511 447 471 l 542 199 b 411 -21 593 50 500 -21 b 240 154 307 -21 250 53 b 425 542 228 288 336 432 "},"8":{"ha":1151,"x_min":0,"x_max":0,"o":"m 121 842 b 514 1076 121 933 207 1076 b 1069 843 928 1074 1069 986 b 940 690 1069 763 1040 736 l 710 585 b 688 549 692 576 683 565 b 732 524 690 536 701 525 l 846 519 b 1082 246 1006 514 1082 435 b 638 -21 1082 71 900 -21 b 69 267 326 -18 69 29 b 276 507 69 401 115 494 l 429 519 b 472 556 461 522 472 538 b 436 594 472 574 458 589 b 121 842 204 653 121 718 m 506 643 b 650 618 535 579 596 579 l 835 749 b 829 839 876 778 881 814 l 490 1003 b 372 931 404 1044 336 1007 m 685 458 b 483 458 608 511 564 515 l 207 261 b 231 179 167 232 171 179 l 951 183 b 972 258 1007 183 1014 229 "},"9":{"ha":1189,"x_min":0,"x_max":0,"o":"m 664 61 b 519 -22 621 3 567 -22 b 374 96 440 -22 374 26 b 431 214 374 131 399 178 l 543 344 b 503 414 574 379 556 414 l 333 414 b 69 694 135 414 69 549 b 590 1076 69 974 349 1076 b 1106 775 910 1076 1106 975 b 988 500 1106 689 1067 607 m 231 843 b 149 793 167 843 149 818 b 183 750 149 778 161 767 l 506 508 b 689 504 585 449 628 451 l 988 761 b 1010 806 1001 774 1010 792 b 956 849 1010 829 992 849 "}," ":{"ha":556,"x_min":0,"x_max":0,"o":""},"A":{"ha":1111,"x_min":0,"x_max":0,"o":"m 622 324 b 763 411 701 325 754 340 l 822 903 b 736 1017 832 979 794 1028 b 607 857 678 1006 628 900 l 439 513 b 265 403 394 421 317 403 b 117 557 183 403 117 471 b 222 722 117 617 158 671 l 501 944 b 763 1076 622 1040 672 1076 b 921 922 846 1076 903 1017 l 1047 254 b 886 -21 1076 99 1029 -21 b 718 136 772 -21 718 51 l 718 208 b 629 253 718 285 678 294 l 493 136 b 213 -21 429 82 326 -21 b 42 156 132 -21 42 25 b 264 315 42 267 142 313 "},"Á":{"ha":1111,"x_min":0,"x_max":0,"o":"m 685 1117 b 660 1161 656 1111 642 1146 l 863 1328 b 1021 1288 918 1374 1001 1353 b 939 1165 1038 1233 1018 1181 m 622 324 b 763 411 701 325 754 340 l 822 903 b 736 1017 832 979 794 1028 b 607 857 678 1006 628 900 l 439 513 b 265 403 394 421 317 403 b 117 557 183 403 117 471 b 222 722 117 617 158 671 l 501 944 b 763 1076 622 1040 672 1076 b 921 922 846 1076 903 1017 l 1047 254 b 886 -21 1076 99 1029 -21 b 718 136 772 -21 718 51 l 718 208 b 629 253 718 285 678 294 l 493 136 b 213 -21 429 82 326 -21 b 42 156 132 -21 42 25 b 264 315 42 267 142 313 "},"Ă":{"ha":1111,"x_min":0,"x_max":0,"o":"m 733 1121 b 463 1281 575 1117 463 1157 b 533 1349 463 1326 500 1349 b 626 1283 575 1349 606 1332 b 733 1160 656 1215 674 1160 b 840 1283 793 1160 811 1215 b 933 1349 861 1332 892 1349 b 1004 1281 967 1349 1004 1326 b 733 1121 1004 1157 892 1117 m 622 324 b 763 411 701 325 754 340 l 822 903 b 736 1017 832 979 794 1028 b 607 857 678 1006 628 900 l 439 513 b 265 403 394 421 317 403 b 117 557 183 403 117 471 b 222 722 117 617 158 671 l 501 944 b 763 1076 622 1040 672 1076 b 921 922 846 1076 903 1017 l 1047 254 b 886 -21 1076 99 1029 -21 b 718 136 772 -21 718 51 l 718 208 b 629 253 718 285 678 294 l 493 136 b 213 -21 429 82 326 -21 b 42 156 132 -21 42 25 b 264 315 42 267 142 313 "},"Ǎ":{"ha":1111,"x_min":0,"x_max":0,"o":"m 740 1163 b 776 1185 753 1163 765 1169 l 854 1297 b 929 1349 883 1339 904 1349 b 1018 1239 983 1349 1018 1310 b 929 1136 1018 1186 994 1142 b 740 1128 867 1131 803 1126 b 551 1136 678 1126 614 1131 b 463 1239 486 1142 463 1186 b 551 1349 463 1310 497 1349 b 626 1297 576 1349 597 1339 l 704 1185 b 740 1163 715 1169 728 1163 m 622 324 b 763 411 701 325 754 340 l 822 903 b 736 1017 832 979 794 1028 b 607 857 678 1006 628 900 l 439 513 b 265 403 394 421 317 403 b 117 557 183 403 117 471 b 222 722 117 617 158 671 l 501 944 b 763 1076 622 1040 672 1076 b 921 922 846 1076 903 1017 l 1047 254 b 886 -21 1076 99 1029 -21 b 718 136 772 -21 718 51 l 718 208 b 629 253 718 285 678 294 l 493 136 b 213 -21 429 82 326 -21 b 42 156 132 -21 42 25 b 264 315 42 267 142 313 "},"Â":{"ha":1111,"x_min":0,"x_max":0,"o":"m 740 1314 b 704 1292 728 1314 715 1307 l 626 1179 b 551 1128 597 1138 576 1128 b 463 1238 497 1128 463 1167 b 551 1340 463 1290 486 1335 b 740 1349 614 1346 678 1350 b 929 1340 803 1350 867 1346 b 1018 1238 994 1335 1018 1290 b 929 1128 1018 1167 983 1128 b 854 1179 904 1128 883 1138 l 776 1292 b 740 1314 765 1307 753 1314 m 622 324 b 763 411 701 325 754 340 l 822 903 b 736 1017 832 979 794 1028 b 607 857 678 1006 628 900 l 439 513 b 265 403 394 421 317 403 b 117 557 183 403 117 471 b 222 722 117 617 158 671 l 501 944 b 763 1076 622 1040 672 1076 b 921 922 846 1076 903 1017 l 1047 254 b 886 -21 1076 99 1029 -21 b 718 136 772 -21 718 51 l 718 208 b 629 253 718 285 678 294 l 493 136 b 213 -21 429 82 326 -21 b 42 156 132 -21 42 25 b 264 315 42 267 142 313 "},"Ä":{"ha":1111,"x_min":0,"x_max":0,"o":"m 588 1160 b 479 1224 514 1147 490 1181 b 615 1354 458 1304 544 1343 b 711 1288 657 1361 697 1346 b 588 1160 732 1204 658 1171 m 839 1183 b 782 1297 769 1214 768 1254 b 968 1332 808 1375 903 1361 b 1013 1224 1007 1314 1032 1279 b 839 1183 983 1142 903 1154 m 622 324 b 763 411 701 325 754 340 l 822 903 b 736 1017 832 979 794 1028 b 607 857 678 1006 628 900 l 439 513 b 265 403 394 421 317 403 b 117 557 183 403 117 471 b 222 722 117 617 158 671 l 501 944 b 763 1076 622 1040 672 1076 b 921 922 846 1076 903 1017 l 1047 254 b 886 -21 1076 99 1029 -21 b 718 136 772 -21 718 51 l 718 208 b 629 253 718 285 678 294 l 493 136 b 213 -21 429 82 326 -21 b 42 156 132 -21 42 25 b 264 315 42 267 142 313 "},"À":{"ha":1111,"x_min":0,"x_max":0,"o":"m 526 1165 b 444 1288 447 1181 428 1233 b 603 1328 464 1353 547 1374 l 806 1161 b 781 1117 824 1146 810 1111 m 622 324 b 763 411 701 325 754 340 l 822 903 b 736 1017 832 979 794 1028 b 607 857 678 1006 628 900 l 439 513 b 265 403 394 421 317 403 b 117 557 183 403 117 471 b 222 722 117 617 158 671 l 501 944 b 763 1076 622 1040 672 1076 b 921 922 846 1076 903 1017 l 1047 254 b 886 -21 1076 99 1029 -21 b 718 136 772 -21 718 51 l 718 208 b 629 253 718 285 678 294 l 493 136 b 213 -21 429 82 326 -21 b 42 156 132 -21 42 25 b 264 315 42 267 142 313 "},"Ā":{"ha":1111,"x_min":0,"x_max":0,"o":"m 556 1165 b 494 1210 514 1167 494 1178 b 558 1263 494 1240 518 1257 l 875 1308 b 1026 1256 978 1324 1014 1307 b 929 1156 1040 1200 1014 1153 m 622 324 b 763 411 701 325 754 340 l 822 903 b 736 1017 832 979 794 1028 b 607 857 678 1006 628 900 l 439 513 b 265 403 394 421 317 403 b 117 557 183 403 117 471 b 222 722 117 617 158 671 l 501 944 b 763 1076 622 1040 672 1076 b 921 922 846 1076 903 1017 l 1047 254 b 886 -21 1076 99 1029 -21 b 718 136 772 -21 718 51 l 718 208 b 629 253 718 285 678 294 l 493 136 b 213 -21 429 82 326 -21 b 42 156 132 -21 42 25 b 264 315 42 267 142 313 "},"Ą":{"ha":1111,"x_min":0,"x_max":0,"o":"m 990 -115 b 1122 -172 1051 -99 1122 -103 b 968 -278 1122 -239 1056 -278 b 774 -33 810 -278 696 -153 l 794 0 b 718 136 743 26 718 79 l 718 208 b 629 253 718 285 678 294 l 493 136 b 213 -21 429 82 326 -21 b 42 156 132 -21 42 25 b 264 315 42 267 142 313 l 622 324 b 763 411 701 325 754 340 l 822 903 b 736 1017 832 979 794 1028 b 607 857 678 1006 628 900 l 439 513 b 265 403 394 421 317 403 b 117 557 183 403 117 471 b 222 722 117 617 158 671 l 501 944 b 763 1076 622 1040 672 1076 b 921 922 846 1076 903 1017 l 1047 254 b 993 13 1067 147 1051 58 b 981 1 992 8 988 4 l 865 -51 b 825 -106 835 -65 825 -81 b 889 -142 825 -133 849 -153 "},"Å":{"ha":1111,"x_min":0,"x_max":0,"o":"m 690 1135 b 574 1257 578 1156 564 1203 b 813 1335 592 1354 718 1350 b 914 1217 879 1324 926 1288 b 690 1135 896 1114 783 1118 m 771 1182 b 811 1246 810 1193 815 1218 b 707 1288 804 1297 747 1300 b 675 1225 686 1281 671 1263 b 771 1182 682 1171 731 1171 m 622 324 b 763 411 701 325 754 340 l 822 903 b 736 1017 832 979 794 1028 b 607 857 678 1006 628 900 l 439 513 b 265 403 394 421 317 403 b 117 557 183 403 117 471 b 222 722 117 617 158 671 l 501 944 b 763 1076 622 1040 672 1076 b 921 922 846 1076 903 1017 l 1047 254 b 886 -21 1076 99 1029 -21 b 718 136 772 -21 718 51 l 718 208 b 629 253 718 285 678 294 l 493 136 b 213 -21 429 82 326 -21 b 42 156 132 -21 42 25 b 264 315 42 267 142 313 "},"Ã":{"ha":1111,"x_min":0,"x_max":0,"o":"m 788 1218 b 842 1218 808 1196 825 1193 l 894 1294 b 1047 1268 942 1363 1039 1340 b 847 1126 1060 1161 976 1126 b 707 1208 797 1126 757 1147 l 681 1240 b 626 1240 660 1265 643 1265 l 574 1164 b 415 1183 535 1107 438 1111 b 621 1332 382 1290 492 1332 b 764 1244 671 1332 708 1307 m 622 324 b 763 411 701 325 754 340 l 822 903 b 736 1017 832 979 794 1028 b 607 857 678 1006 628 900 l 439 513 b 265 403 394 421 317 403 b 117 557 183 403 117 471 b 222 722 117 617 158 671 l 501 944 b 763 1076 622 1040 672 1076 b 921 922 846 1076 903 1017 l 1047 254 b 886 -21 1076 99 1029 -21 b 718 136 772 -21 718 51 l 718 208 b 629 253 718 285 678 294 l 493 136 b 213 -21 429 82 326 -21 b 42 156 132 -21 42 25 b 264 315 42 267 142 313 "},"Æ":{"ha":1925,"x_min":0,"x_max":0,"o":"m 956 744 b 1001 689 963 710 978 689 b 1064 717 1028 689 1039 694 l 1371 986 b 1556 1072 1433 1042 1497 1072 b 1701 919 1642 1072 1701 1001 b 1525 760 1701 829 1625 785 l 1054 644 b 989 586 1008 633 983 615 b 1074 556 994 556 1019 546 l 1747 674 b 1897 554 1836 689 1897 656 b 1747 436 1897 454 1836 428 l 1097 496 b 1013 465 1043 501 1018 496 b 1078 407 1007 436 1032 417 l 1594 293 b 1771 133 1694 271 1771 224 b 1625 -19 1771 51 1711 -19 b 1440 63 1567 -19 1504 13 l 1114 321 b 1063 344 1089 340 1078 344 b 1040 292 1046 344 1033 326 l 1047 254 b 886 -21 1076 97 1029 -21 b 718 136 772 -21 718 51 l 718 208 b 629 253 718 285 678 294 l 493 136 b 213 -21 429 82 326 -21 b 42 156 132 -21 42 25 b 264 315 42 267 142 313 l 622 324 b 763 411 701 325 754 340 l 822 903 b 736 1017 832 979 794 1028 b 607 857 678 1006 628 900 l 439 513 b 265 403 394 421 317 403 b 117 557 183 403 117 471 b 222 722 117 617 158 671 l 501 944 b 763 1076 622 1040 672 1076 b 921 922 846 1076 903 1015 "},"B":{"ha":1200,"x_min":0,"x_max":0,"o":"m 800 672 b 736 624 758 674 736 649 b 775 578 736 604 749 582 l 926 554 b 1144 328 1110 525 1144 415 b 683 -21 1144 119 954 -21 b 63 522 261 -21 63 210 b 589 1056 63 863 263 1056 l 764 1056 b 1136 863 1025 1056 1136 1008 b 917 667 1136 738 1026 661 m 901 231 b 1057 339 1003 232 1057 283 b 872 436 1057 424 989 460 l 371 336 b 279 369 319 326 288 343 b 324 457 268 406 282 432 l 744 707 b 807 942 865 779 863 875 b 489 869 742 1019 603 1024 l 207 486 b 185 324 168 432 165 372 b 351 226 208 264 265 226 "},"C":{"ha":1167,"x_min":0,"x_max":0,"o":"m 563 -21 b 83 508 235 -21 83 211 b 626 1076 83 839 307 1076 b 1050 731 893 1076 1050 911 b 867 558 1050 633 1008 543 b 764 771 750 571 750 692 l 788 903 b 700 968 799 965 764 1007 l 251 696 b 253 596 197 663 194 613 l 503 526 b 525 314 601 499 642 376 l 449 274 b 624 89 254 171 497 -58 l 828 328 b 1069 279 936 454 1069 381 b 563 -21 1069 157 826 -21 "},"Ć":{"ha":1167,"x_min":0,"x_max":0,"o":"m 578 1117 b 553 1161 549 1111 535 1146 l 756 1328 b 914 1288 811 1374 894 1353 b 832 1165 931 1233 911 1181 m 563 -21 b 83 508 235 -21 83 211 b 626 1076 83 839 307 1076 b 1050 731 893 1076 1050 911 b 867 558 1050 633 1008 543 b 764 771 750 571 750 692 l 788 903 b 700 968 799 965 764 1007 l 251 696 b 253 596 197 663 194 613 l 503 526 b 525 314 601 499 642 376 l 449 274 b 624 89 254 171 497 -58 l 828 328 b 1069 279 936 454 1069 381 b 563 -21 1069 157 826 -21 "},"Č":{"ha":1167,"x_min":0,"x_max":0,"o":"m 626 1163 b 663 1185 639 1163 651 1169 l 740 1297 b 815 1349 769 1339 790 1349 b 904 1239 869 1349 904 1310 b 815 1136 904 1186 881 1142 b 626 1128 753 1131 689 1126 b 438 1136 564 1126 500 1131 b 349 1239 372 1142 349 1186 b 438 1349 349 1310 383 1349 b 513 1297 463 1349 483 1339 l 590 1185 b 626 1163 601 1169 614 1163 m 563 -21 b 83 508 235 -21 83 211 b 626 1076 83 839 307 1076 b 1050 731 893 1076 1050 911 b 867 558 1050 633 1008 543 b 764 771 750 571 750 692 l 788 903 b 700 968 799 965 764 1007 l 251 696 b 253 596 197 663 194 613 l 503 526 b 525 314 601 499 642 376 l 449 274 b 624 89 254 171 497 -58 l 828 328 b 1069 279 936 454 1069 381 b 563 -21 1069 157 826 -21 "},"Ç":{"ha":1167,"x_min":0,"x_max":0,"o":"m 1069 279 b 603 -19 1069 163 850 -3 b 611 -53 593 -47 596 -53 b 689 -40 632 -53 653 -40 b 810 -147 746 -40 810 -87 b 467 -267 810 -261 649 -300 b 315 -157 363 -246 307 -214 b 451 -107 325 -89 400 -64 l 483 -133 l 528 -19 b 83 508 224 -4 83 222 b 626 1076 83 839 307 1076 b 1050 731 893 1076 1050 911 b 867 558 1050 633 1008 543 b 764 771 750 571 750 692 l 788 903 b 700 968 799 965 764 1007 l 251 696 b 253 596 197 663 194 613 l 503 526 b 525 314 601 499 642 376 l 449 274 b 624 89 254 171 497 -58 l 828 328 b 1069 279 936 454 1069 381 m 688 -110 b 590 -140 660 -110 632 -114 b 624 -215 556 -162 571 -215 b 735 -150 688 -215 735 -182 b 688 -110 735 -125 717 -110 "},"Ċ":{"ha":1167,"x_min":0,"x_max":0,"o":"m 581 1132 b 492 1254 494 1153 483 1200 b 703 1332 507 1351 619 1353 b 776 1214 751 1319 789 1285 b 581 1132 761 1111 663 1111 m 563 -21 b 83 508 235 -21 83 211 b 626 1076 83 839 307 1076 b 1050 731 893 1076 1050 911 b 867 558 1050 633 1008 543 b 764 771 750 571 750 692 l 788 903 b 700 968 799 965 764 1007 l 251 696 b 253 596 197 663 194 613 l 503 526 b 525 314 601 499 642 376 l 449 274 b 624 89 254 171 497 -58 l 828 328 b 1069 279 936 454 1069 381 b 563 -21 1069 157 826 -21 "},"D":{"ha":1201,"x_min":0,"x_max":0,"o":"m 699 1056 b 1118 521 1000 1056 1118 861 b 492 -19 1118 164 915 -21 b 199 594 133 -18 61 315 l 250 699 b 190 779 274 747 253 768 b 76 910 113 793 76 846 b 217 1056 76 982 125 1056 m 939 714 b 797 897 994 849 903 918 l 450 831 b 318 651 332 808 292 746 l 461 149 b 699 135 501 6 656 32 "},"Ð":{"ha":1204,"x_min":0,"x_max":0,"o":"m 701 1056 b 1121 521 1003 1056 1121 861 b 494 -19 1121 164 918 -21 b 140 314 219 -18 140 174 b 208 436 140 381 179 411 b 240 503 232 457 240 478 b 167 550 240 522 235 550 l 168 550 l 107 551 b 110 607 71 551 60 596 l 172 622 b 258 721 225 636 258 672 b 193 779 258 749 239 772 b 79 910 115 793 79 846 b 219 1056 79 982 128 1056 m 942 714 b 800 897 997 849 906 918 l 453 826 b 314 738 365 808 314 779 b 386 675 314 696 335 667 l 438 683 l 618 725 b 647 542 804 768 813 539 l 379 546 b 276 482 301 542 278 513 b 313 422 276 456 288 435 b 429 271 353 403 403 363 l 464 149 b 701 135 504 6 658 32 "},"Ď":{"ha":1201,"x_min":0,"x_max":0,"o":"m 601 1163 b 638 1185 614 1163 626 1169 l 715 1297 b 790 1349 744 1339 765 1349 b 879 1239 844 1349 879 1310 b 790 1136 879 1186 856 1142 b 601 1128 728 1131 664 1126 b 413 1136 539 1126 475 1131 b 324 1239 347 1142 324 1186 b 413 1349 324 1310 358 1349 b 488 1297 438 1349 458 1339 l 565 1185 b 601 1163 576 1169 589 1163 m 699 1056 b 1118 521 1000 1056 1118 861 b 492 -19 1118 164 915 -21 b 199 594 133 -18 61 315 l 250 699 b 190 779 274 747 253 768 b 76 910 113 793 76 846 b 217 1056 76 982 125 1056 m 939 714 b 797 897 994 849 903 918 l 450 831 b 318 651 332 808 292 746 l 461 149 b 699 135 501 6 656 32 "},"Đ":{"ha":1204,"x_min":0,"x_max":0,"o":"m 701 1056 b 1121 521 1003 1056 1121 861 b 494 -19 1121 164 918 -21 b 140 314 219 -18 140 174 b 208 436 140 381 179 411 b 240 503 232 457 240 478 b 167 550 240 522 235 550 l 168 550 l 107 551 b 110 607 71 551 60 596 l 172 622 b 258 721 225 636 258 672 b 193 779 258 749 239 772 b 79 910 115 793 79 846 b 219 1056 79 982 128 1056 m 942 714 b 800 897 997 849 906 918 l 453 826 b 314 738 365 808 314 779 b 386 675 314 696 335 667 l 438 683 l 618 725 b 647 542 804 768 813 539 l 379 546 b 276 482 301 542 278 513 b 313 422 276 456 288 435 b 429 271 353 403 403 363 l 464 149 b 701 135 504 6 658 32 "},"E":{"ha":1138,"x_min":0,"x_max":0,"o":"m 933 199 b 1061 122 1038 208 1061 167 b 728 -22 1061 35 976 -22 b 69 374 372 -22 69 121 b 324 511 69 500 188 567 l 601 397 b 638 461 665 371 693 422 l 224 749 b 126 894 161 793 126 843 b 478 1075 126 1033 293 1075 b 953 1007 664 1076 872 1044 b 1061 849 1026 972 1065 928 b 875 774 1057 765 994 732 l 307 972 b 201 908 239 996 201 939 b 278 825 201 874 213 846 l 819 653 b 961 497 942 614 961 549 b 819 354 961 431 925 367 l 322 293 b 206 214 238 282 206 254 b 322 144 206 175 242 138 "},"É":{"ha":1138,"x_min":0,"x_max":0,"o":"m 554 1117 b 529 1161 525 1111 511 1146 l 732 1328 b 890 1288 788 1374 871 1353 b 808 1165 907 1233 888 1181 m 933 199 b 1061 122 1038 208 1061 167 b 728 -22 1061 35 976 -22 b 69 374 372 -22 69 121 b 324 511 69 500 188 567 l 601 397 b 638 461 665 371 693 422 l 224 749 b 126 894 161 793 126 843 b 478 1075 126 1033 293 1075 b 953 1007 664 1076 872 1044 b 1061 849 1026 972 1065 928 b 875 774 1057 765 994 732 l 307 972 b 201 908 239 996 201 939 b 278 825 201 874 213 846 l 819 653 b 961 497 942 614 961 549 b 819 354 961 431 925 367 l 322 293 b 206 214 238 282 206 254 b 322 144 206 175 242 138 "},"Ě":{"ha":1138,"x_min":0,"x_max":0,"o":"m 603 1163 b 639 1185 615 1163 628 1169 l 717 1297 b 792 1349 746 1339 767 1349 b 881 1239 846 1349 881 1310 b 792 1136 881 1186 857 1142 b 603 1128 729 1131 665 1126 b 414 1136 540 1126 476 1131 b 325 1239 349 1142 325 1186 b 414 1349 325 1310 360 1349 b 489 1297 439 1349 460 1339 l 567 1185 b 603 1163 578 1169 590 1163 m 933 199 b 1061 122 1038 208 1061 167 b 728 -22 1061 35 976 -22 b 69 374 372 -22 69 121 b 324 511 69 500 188 567 l 601 397 b 638 461 665 371 693 422 l 224 749 b 126 894 161 793 126 843 b 478 1075 126 1033 293 1075 b 953 1007 664 1076 872 1044 b 1061 849 1026 972 1065 928 b 875 774 1057 765 994 732 l 307 972 b 201 908 239 996 201 939 b 278 825 201 874 213 846 l 819 653 b 961 497 942 614 961 549 b 819 354 961 431 925 367 l 322 293 b 206 214 238 282 206 254 b 322 144 206 175 242 138 "},"Ê":{"ha":1138,"x_min":0,"x_max":0,"o":"m 610 1314 b 574 1292 597 1314 585 1307 l 496 1179 b 421 1128 467 1138 446 1128 b 332 1238 367 1128 332 1167 b 421 1340 332 1290 356 1335 b 610 1349 483 1346 547 1350 b 799 1340 672 1350 736 1346 b 888 1238 864 1335 888 1290 b 799 1128 888 1167 853 1128 b 724 1179 774 1128 753 1138 l 646 1292 b 610 1314 635 1307 622 1314 m 933 199 b 1061 122 1038 208 1061 167 b 728 -22 1061 35 976 -22 b 69 374 372 -22 69 121 b 324 511 69 500 188 567 l 601 397 b 638 461 665 371 693 422 l 224 749 b 126 894 161 793 126 843 b 478 1075 126 1033 293 1075 b 953 1007 664 1076 872 1044 b 1061 849 1026 972 1065 928 b 875 774 1057 765 994 732 l 307 972 b 201 908 239 996 201 939 b 278 825 201 874 213 846 l 819 653 b 961 497 942 614 961 549 b 819 354 961 431 925 367 l 322 293 b 206 214 238 282 206 254 b 322 144 206 175 242 138 "},"Ë":{"ha":1138,"x_min":0,"x_max":0,"o":"m 457 1160 b 349 1224 383 1147 360 1181 b 485 1354 328 1304 414 1343 b 581 1288 526 1361 567 1346 b 457 1160 601 1204 528 1171 m 708 1183 b 651 1297 639 1214 638 1254 b 838 1332 678 1375 772 1361 b 882 1224 876 1314 901 1279 b 708 1183 853 1142 772 1154 m 933 199 b 1061 122 1038 208 1061 167 b 728 -22 1061 35 976 -22 b 69 374 372 -22 69 121 b 324 511 69 500 188 567 l 601 397 b 638 461 665 371 693 422 l 224 749 b 126 894 161 793 126 843 b 478 1075 126 1033 293 1075 b 953 1007 664 1076 872 1044 b 1061 849 1026 972 1065 928 b 875 774 1057 765 994 732 l 307 972 b 201 908 239 996 201 939 b 278 825 201 874 213 846 l 819 653 b 961 497 942 614 961 549 b 819 354 961 431 925 367 l 322 293 b 206 214 238 282 206 254 b 322 144 206 175 242 138 "},"Ė":{"ha":1138,"x_min":0,"x_max":0,"o":"m 557 1132 b 468 1254 471 1153 460 1200 b 679 1332 483 1351 596 1353 b 753 1214 728 1319 765 1285 b 557 1132 738 1111 639 1111 m 933 199 b 1061 122 1038 208 1061 167 b 728 -22 1061 35 976 -22 b 69 374 372 -22 69 121 b 324 511 69 500 188 567 l 601 397 b 638 461 665 371 693 422 l 224 749 b 126 894 161 793 126 843 b 478 1075 126 1033 293 1075 b 953 1007 664 1076 872 1044 b 1061 849 1026 972 1065 928 b 875 774 1057 765 994 732 l 307 972 b 201 908 239 996 201 939 b 278 825 201 874 213 846 l 819 653 b 961 497 942 614 961 549 b 819 354 961 431 925 367 l 322 293 b 206 214 238 282 206 254 b 322 144 206 175 242 138 "},"È":{"ha":1138,"x_min":0,"x_max":0,"o":"m 396 1165 b 314 1288 317 1181 297 1233 b 472 1328 333 1353 417 1374 l 675 1161 b 650 1117 693 1146 679 1111 m 933 199 b 1061 122 1038 208 1061 167 b 728 -22 1061 35 976 -22 b 69 374 372 -22 69 121 b 324 511 69 500 188 567 l 601 397 b 638 461 665 371 693 422 l 224 749 b 126 894 161 793 126 843 b 478 1075 126 1033 293 1075 b 953 1007 664 1076 872 1044 b 1061 849 1026 972 1065 928 b 875 774 1057 765 994 732 l 307 972 b 201 908 239 996 201 939 b 278 825 201 874 213 846 l 819 653 b 961 497 942 614 961 549 b 819 354 961 431 925 367 l 322 293 b 206 214 238 282 206 254 b 322 144 206 175 242 138 "},"Ē":{"ha":1138,"x_min":0,"x_max":0,"o":"m 425 1165 b 364 1210 383 1167 364 1178 b 428 1263 364 1240 388 1257 l 744 1308 b 896 1256 847 1324 883 1307 b 799 1156 910 1200 883 1153 m 933 199 b 1061 122 1038 208 1061 167 b 728 -22 1061 35 976 -22 b 69 374 372 -22 69 121 b 324 511 69 500 188 567 l 601 397 b 638 461 665 371 693 422 l 224 749 b 126 894 161 793 126 843 b 478 1075 126 1033 293 1075 b 953 1007 664 1076 872 1044 b 1061 849 1026 972 1065 928 b 875 774 1057 765 994 732 l 307 972 b 201 908 239 996 201 939 b 278 825 201 874 213 846 l 819 653 b 961 497 942 614 961 549 b 819 354 961 431 925 367 l 322 293 b 206 214 238 282 206 254 b 322 144 206 175 242 138 "},"Ę":{"ha":1138,"x_min":0,"x_max":0,"o":"m 964 -115 b 1096 -172 1025 -99 1096 -103 b 942 -278 1096 -239 1029 -278 b 747 -33 783 -278 669 -153 l 754 -22 l 728 -22 b 69 374 372 -22 69 121 b 324 511 69 500 188 567 l 601 397 b 638 461 665 371 693 422 l 224 749 b 126 894 161 793 126 843 b 478 1075 126 1033 293 1075 b 953 1007 664 1076 872 1044 b 1061 849 1026 972 1065 928 b 875 774 1057 765 994 732 l 307 972 b 201 908 239 996 201 939 b 278 825 201 874 213 846 l 819 653 b 961 497 942 614 961 549 b 819 354 961 431 925 367 l 322 293 b 206 214 238 282 206 254 b 322 144 206 175 242 138 l 933 199 b 1061 122 1038 208 1061 167 b 963 7 1061 72 1033 32 b 954 1 961 4 958 3 l 839 -51 b 799 -106 808 -65 799 -81 b 863 -142 799 -133 822 -153 "},"F":{"ha":1050,"x_min":0,"x_max":0,"o":"m 822 494 b 883 371 879 458 910 419 b 675 375 851 314 774 332 l 294 539 b 211 419 208 571 163 493 l 349 207 b 228 -21 431 81 360 -21 b 85 151 131 -21 72 43 l 167 840 b 388 1056 183 979 264 1056 l 871 1056 b 1050 908 964 1056 1050 1011 b 903 750 1050 789 985 750 b 682 831 854 750 749 800 l 431 944 b 283 921 344 983 301 956 b 324 817 268 888 274 849 "},"G":{"ha":1243,"x_min":0,"x_max":0,"o":"m 486 739 b 449 542 539 672 533 599 l 225 389 b 319 213 121 318 213 149 l 907 563 b 1146 481 1040 642 1140 594 l 1160 189 b 996 -21 1167 39 1099 -21 b 903 226 893 -21 811 86 l 1051 456 b 1015 532 1081 500 1046 532 b 918 463 989 532 968 529 l 690 165 b 400 -21 583 25 525 -21 b 83 508 236 -21 83 157 b 617 1076 83 869 301 1076 b 1099 843 881 1076 1056 990 b 860 746 1138 713 947 631 l 706 949 b 486 1001 660 1008 569 1038 b 446 790 389 960 394 854 "},"Ğ":{"ha":1243,"x_min":0,"x_max":0,"o":"m 626 1121 b 356 1281 468 1117 356 1157 b 426 1349 356 1326 393 1349 b 519 1283 468 1349 499 1332 b 626 1160 549 1215 567 1160 b 733 1283 686 1160 704 1215 b 826 1349 754 1332 785 1349 b 897 1281 860 1349 897 1326 b 626 1121 897 1157 785 1117 m 486 739 b 449 542 539 672 533 599 l 225 389 b 319 213 121 318 213 149 l 907 563 b 1146 481 1040 642 1140 594 l 1160 189 b 996 -21 1167 39 1099 -21 b 903 226 893 -21 811 86 l 1051 456 b 1015 532 1081 500 1046 532 b 918 463 989 532 968 529 l 690 165 b 400 -21 583 25 525 -21 b 83 508 236 -21 83 157 b 617 1076 83 869 301 1076 b 1099 843 881 1076 1056 990 b 860 746 1138 713 947 631 l 706 949 b 486 1001 660 1008 569 1038 b 446 790 389 960 394 854 "},"Ģ":{"ha":1243,"x_min":0,"x_max":0,"o":"m 486 739 b 449 542 539 672 533 599 l 225 389 b 319 213 121 318 213 149 l 907 563 b 1146 481 1040 642 1140 594 l 1160 189 b 996 -21 1167 39 1099 -21 b 903 226 893 -21 811 86 l 1051 456 b 1015 532 1081 500 1046 532 b 918 463 989 532 968 529 l 690 165 b 400 -21 583 25 525 -21 b 83 508 236 -21 83 157 b 617 1076 83 869 301 1076 b 1099 843 881 1076 1056 990 b 860 746 1138 713 947 631 l 706 949 b 486 1001 660 1008 569 1038 b 446 790 389 960 394 854 m 579 -110 b 771 -36 583 -11 693 -8 b 814 -221 869 -71 893 -172 l 619 -340 b 571 -306 594 -356 569 -342 "},"Ġ":{"ha":1243,"x_min":0,"x_max":0,"o":"m 581 1132 b 492 1254 494 1153 483 1200 b 703 1332 507 1351 619 1353 b 776 1214 751 1319 789 1285 b 581 1132 761 1111 663 1111 m 486 739 b 449 542 539 672 533 599 l 225 389 b 319 213 121 318 213 149 l 907 563 b 1146 481 1040 642 1140 594 l 1160 189 b 996 -21 1167 39 1099 -21 b 903 226 893 -21 811 86 l 1051 456 b 1015 532 1081 500 1046 532 b 918 463 989 532 968 529 l 690 165 b 400 -21 583 25 525 -21 b 83 508 236 -21 83 157 b 617 1076 83 869 301 1076 b 1099 843 881 1076 1056 990 b 860 746 1138 713 947 631 l 706 949 b 486 1001 660 1008 569 1038 b 446 790 389 960 394 854 "},"H":{"ha":1203,"x_min":0,"x_max":0,"o":"m 974 1076 b 1119 942 1053 1076 1128 1025 l 1036 169 b 842 -21 1025 69 990 -21 b 699 122 749 -21 699 51 b 775 279 699 167 710 218 l 904 401 b 946 483 935 429 946 461 b 849 514 946 522 896 525 l 321 410 b 249 361 260 397 249 382 b 321 265 249 328 286 303 b 389 122 365 217 389 167 b 225 -21 389 42 308 -21 b 85 160 146 -21 71 28 l 158 844 b 357 1076 169 944 208 1076 b 506 949 451 1076 506 1024 b 422 806 506 886 471 833 l 264 715 b 215 644 222 692 215 671 b 296 588 215 607 249 588 l 886 588 b 982 642 943 588 974 601 b 938 733 992 688 964 704 l 878 801 b 810 939 835 851 810 896 b 974 1076 810 1015 861 1076 "},"Ħ":{"ha":1203,"x_min":0,"x_max":0,"o":"m 47 692 b 17 719 28 692 17 701 b 50 747 17 736 26 746 l 83 750 b 158 844 121 753 150 774 b 357 1076 169 942 208 1076 b 506 949 451 1076 506 1024 b 469 847 506 908 492 874 b 496 789 444 818 451 785 l 799 818 b 826 875 833 821 842 840 b 810 939 815 900 810 919 b 974 1076 810 1015 861 1076 b 1119 942 1053 1076 1132 1025 l 1113 894 b 1158 849 1108 864 1122 849 b 1271 771 1231 849 1271 824 b 1171 682 1271 714 1243 681 l 1135 682 b 1088 639 1099 682 1090 669 l 1036 169 b 842 -21 1025 69 990 -21 b 699 122 749 -21 699 51 b 785 279 699 167 707 235 l 901 346 b 947 414 932 363 947 383 b 858 460 947 450 922 472 l 308 351 b 236 301 254 340 236 322 b 307 229 236 274 253 256 b 389 106 361 203 389 167 b 225 -21 389 28 308 -21 b 85 160 146 -21 71 28 l 136 640 b 79 692 140 681 122 692 m 215 589 b 296 532 215 551 249 532 l 883 532 b 950 647 967 532 982 576 b 869 683 938 675 917 683 l 363 689 b 264 660 314 689 285 675 b 215 589 222 629 215 615 "},"I":{"ha":596,"x_min":0,"x_max":0,"o":"m 56 747 b 121 847 56 769 86 807 l 278 1028 b 388 1076 307 1061 347 1076 b 526 944 458 1076 526 1028 b 413 807 526 867 479 831 l 260 754 b 233 722 242 749 233 736 b 269 700 233 699 257 699 l 364 711 b 460 504 504 728 551 610 l 194 201 b 165 151 172 176 165 165 b 215 111 165 124 189 100 l 382 183 b 517 119 440 208 508 200 b 308 -21 526 26 415 -21 b 114 224 150 -21 76 85 l 226 635 b 231 660 229 644 231 653 b 161 703 231 692 206 703 l 101 703 b 56 747 67 703 56 722 "},"Í":{"ha":596,"x_min":0,"x_max":0,"o":"m 306 1117 b 281 1161 276 1111 263 1146 l 483 1328 b 642 1288 539 1374 622 1353 b 560 1165 658 1233 639 1181 m 56 747 b 121 847 56 769 86 807 l 278 1028 b 388 1076 307 1061 347 1076 b 526 944 458 1076 526 1028 b 413 807 526 867 479 831 l 260 754 b 233 722 242 749 233 736 b 269 700 233 699 257 699 l 364 711 b 460 504 504 728 551 610 l 194 201 b 165 151 172 176 165 165 b 215 111 165 124 189 100 l 382 183 b 517 119 440 208 508 200 b 308 -21 526 26 415 -21 b 114 224 150 -21 76 85 l 226 635 b 231 660 229 644 231 653 b 161 703 231 692 206 703 l 101 703 b 56 747 67 703 56 722 "},"Î":{"ha":596,"x_min":0,"x_max":0,"o":"m 361 1314 b 325 1292 349 1314 336 1307 l 247 1179 b 172 1128 218 1138 197 1128 b 83 1238 118 1128 83 1167 b 172 1340 83 1290 107 1335 b 361 1349 235 1346 299 1350 b 550 1340 424 1350 488 1346 b 639 1238 615 1335 639 1290 b 550 1128 639 1167 604 1128 b 475 1179 525 1128 504 1138 l 397 1292 b 361 1314 386 1307 374 1314 m 56 747 b 121 847 56 769 86 807 l 278 1028 b 388 1076 307 1061 347 1076 b 526 944 458 1076 526 1028 b 413 807 526 867 479 831 l 260 754 b 233 722 242 749 233 736 b 269 700 233 699 257 699 l 364 711 b 460 504 504 728 551 610 l 194 201 b 165 151 172 176 165 165 b 215 111 165 124 189 100 l 382 183 b 517 119 440 208 508 200 b 308 -21 526 26 415 -21 b 114 224 150 -21 76 85 l 226 635 b 231 660 229 644 231 653 b 161 703 231 692 206 703 l 101 703 b 56 747 67 703 56 722 "},"Ï":{"ha":596,"x_min":0,"x_max":0,"o":"m 208 1160 b 100 1224 135 1147 111 1181 b 236 1354 79 1304 165 1343 b 332 1288 278 1361 318 1346 b 208 1160 353 1204 279 1171 m 460 1183 b 403 1297 390 1214 389 1254 b 589 1332 429 1375 524 1361 b 633 1224 628 1314 653 1279 b 460 1183 604 1142 524 1154 m 56 747 b 121 847 56 769 86 807 l 278 1028 b 388 1076 307 1061 347 1076 b 526 944 458 1076 526 1028 b 413 807 526 867 479 831 l 260 754 b 233 722 242 749 233 736 b 269 700 233 699 257 699 l 364 711 b 460 504 504 728 551 610 l 194 201 b 165 151 172 176 165 165 b 215 111 165 124 189 100 l 382 183 b 517 119 440 208 508 200 b 308 -21 526 26 415 -21 b 114 224 150 -21 76 85 l 226 635 b 231 660 229 644 231 653 b 161 703 231 692 206 703 l 101 703 b 56 747 67 703 56 722 "},"İ":{"ha":596,"x_min":0,"x_max":0,"o":"m 308 1132 b 219 1254 222 1153 211 1200 b 431 1332 235 1351 347 1353 b 504 1214 479 1319 517 1285 b 308 1132 489 1111 390 1111 m 56 747 b 121 847 56 769 86 807 l 278 1028 b 388 1076 307 1061 347 1076 b 526 944 458 1076 526 1028 b 413 807 526 867 479 831 l 260 754 b 233 722 242 749 233 736 b 269 700 233 699 257 699 l 364 711 b 460 504 504 728 551 610 l 194 201 b 165 151 172 176 165 165 b 215 111 165 124 189 100 l 382 183 b 517 119 440 208 508 200 b 308 -21 526 26 415 -21 b 114 224 150 -21 76 85 l 226 635 b 231 660 229 644 231 653 b 161 703 231 692 206 703 l 101 703 b 56 747 67 703 56 722 "},"Ì":{"ha":596,"x_min":0,"x_max":0,"o":"m 147 1165 b 65 1288 68 1181 49 1233 b 224 1328 85 1353 168 1374 l 426 1161 b 401 1117 444 1146 431 1111 m 56 747 b 121 847 56 769 86 807 l 278 1028 b 388 1076 307 1061 347 1076 b 526 944 458 1076 526 1028 b 413 807 526 867 479 831 l 260 754 b 233 722 242 749 233 736 b 269 700 233 699 257 699 l 364 711 b 460 504 504 728 551 610 l 194 201 b 165 151 172 176 165 165 b 215 111 165 124 189 100 l 382 183 b 517 119 440 208 508 200 b 308 -21 526 26 415 -21 b 114 224 150 -21 76 85 l 226 635 b 231 660 229 644 231 653 b 161 703 231 692 206 703 l 101 703 b 56 747 67 703 56 722 "},"Ī":{"ha":596,"x_min":0,"x_max":0,"o":"m 176 1165 b 115 1210 135 1167 115 1178 b 179 1263 115 1240 139 1257 l 496 1308 b 647 1256 599 1324 635 1307 b 550 1156 661 1200 635 1153 m 56 747 b 121 847 56 769 86 807 l 278 1028 b 388 1076 307 1061 347 1076 b 526 944 458 1076 526 1028 b 413 807 526 867 479 831 l 260 754 b 233 722 242 749 233 736 b 269 700 233 699 257 699 l 364 711 b 460 504 504 728 551 610 l 194 201 b 165 151 172 176 165 165 b 215 111 165 124 189 100 l 382 183 b 517 119 440 208 508 200 b 308 -21 526 26 415 -21 b 114 224 150 -21 76 85 l 226 635 b 231 660 229 644 231 653 b 161 703 231 692 206 703 l 101 703 b 56 747 67 703 56 722 "},"J":{"ha":731,"x_min":0,"x_max":0,"o":"m 547 247 b 579 392 604 258 624 315 l 390 715 b 326 917 358 769 326 857 b 479 1078 326 988 363 1078 b 647 871 557 1078 647 1029 l 647 346 b 394 -21 647 100 608 -21 b 42 271 182 -21 42 126 b 250 618 42 454 153 618 b 321 468 338 618 383 533 l 136 275 b 176 174 83 218 122 163 "},"K":{"ha":1197,"x_min":0,"x_max":0,"o":"m 300 1076 b 347 824 442 1076 438 931 l 325 797 b 286 674 288 751 267 704 b 440 697 322 617 371 644 l 803 972 b 1039 1076 893 1040 953 1076 b 1160 904 1117 1076 1174 988 b 958 740 1143 807 1085 768 l 524 646 b 389 585 469 635 396 626 b 442 500 383 554 394 522 l 925 268 b 992 332 965 249 1004 292 l 940 500 b 1003 601 921 564 960 599 b 1092 490 1050 603 1103 568 l 1042 143 b 864 -21 1025 25 947 -21 b 657 132 772 -21 738 36 l 276 585 b 193 528 221 650 150 594 l 367 263 b 401 108 394 221 413 175 b 226 -21 389 39 325 -21 b 83 171 126 -21 76 50 l 132 897 b 300 1076 142 1029 221 1076 "},"Ķ":{"ha":1197,"x_min":0,"x_max":0,"o":"m 300 1076 b 347 824 442 1076 438 931 l 325 797 b 286 674 288 751 267 704 b 440 697 322 617 371 644 l 803 972 b 1039 1076 893 1040 953 1076 b 1160 904 1117 1076 1174 988 b 958 740 1143 807 1085 768 l 524 646 b 389 585 469 635 396 626 b 442 500 383 554 394 522 l 925 268 b 992 332 965 249 1004 292 l 940 500 b 1003 601 921 564 960 599 b 1092 490 1050 603 1103 568 l 1042 143 b 864 -21 1025 25 947 -21 b 657 132 772 -21 738 36 l 276 585 b 193 528 221 650 150 594 l 367 263 b 401 108 394 221 413 175 b 226 -21 389 39 325 -21 b 83 171 126 -21 76 50 l 132 897 b 300 1076 142 1029 221 1076 m 449 -110 b 640 -36 453 -11 563 -8 b 683 -221 739 -71 763 -172 l 489 -340 b 440 -306 464 -356 439 -342 "},"L":{"ha":819,"x_min":0,"x_max":0,"o":"m 171 857 b 342 1076 192 1006 247 1076 b 510 918 421 1076 510 1024 b 472 789 510 882 499 839 l 179 244 b 139 136 156 201 139 164 b 193 76 139 100 169 76 b 333 161 222 76 263 107 l 461 260 b 604 317 514 300 563 317 b 757 158 696 317 757 238 b 551 0 757 79 697 0 l 275 0 b 83 194 124 0 83 51 b 89 269 83 217 85 242 "},"Ĺ":{"ha":819,"x_min":0,"x_max":0,"o":"m 360 1117 b 335 1161 331 1111 317 1146 l 538 1328 b 696 1288 593 1374 676 1353 b 614 1165 713 1233 693 1181 m 171 857 b 342 1076 192 1006 247 1076 b 510 918 421 1076 510 1024 b 472 789 510 882 499 839 l 179 244 b 139 136 156 201 139 164 b 193 76 139 100 169 76 b 333 161 222 76 263 107 l 461 260 b 604 317 514 300 563 317 b 757 158 696 317 757 238 b 551 0 757 79 697 0 l 275 0 b 83 194 124 0 83 51 b 89 269 83 217 85 242 "},"Ľ":{"ha":833,"x_min":0,"x_max":0,"o":"m 415 1163 b 451 1185 428 1163 440 1169 l 529 1297 b 604 1349 558 1339 579 1349 b 693 1239 658 1349 693 1310 b 604 1136 693 1186 669 1142 b 415 1128 542 1131 478 1126 b 226 1136 353 1126 289 1131 b 138 1239 161 1142 138 1186 b 226 1349 138 1310 172 1349 b 301 1297 251 1349 272 1339 l 379 1185 b 415 1163 390 1169 403 1163 m 171 857 b 342 1076 192 1006 247 1076 b 510 918 421 1076 510 1024 b 472 789 510 882 499 839 l 179 244 b 139 136 156 201 139 164 b 193 76 139 100 169 76 b 333 161 222 76 263 107 l 461 260 b 604 317 514 300 563 317 b 757 158 696 317 757 238 b 551 0 757 79 697 0 l 275 0 b 83 194 124 0 83 51 b 89 269 83 217 85 242 "},"Ł":{"ha":819,"x_min":0,"x_max":0,"o":"m 60 414 b 119 500 99 435 113 454 l 171 857 b 342 1076 192 1006 247 1076 b 510 918 421 1076 510 1024 b 472 789 510 882 500 836 l 357 590 b 389 557 340 561 369 540 l 529 674 b 689 678 613 743 658 721 b 638 536 722 631 718 563 l 364 444 b 231 339 299 422 261 394 l 179 244 b 139 136 156 201 139 164 b 193 76 139 100 169 76 b 333 161 222 76 263 107 l 461 260 b 604 317 514 300 563 317 b 757 158 696 317 757 238 b 551 0 757 79 697 0 l 275 0 b 83 200 124 0 72 65 l 89 269 b 54 342 93 324 85 351 l 28 333 b 10 386 -7 322 -35 361 "},"M":{"ha":1578,"x_min":0,"x_max":0,"o":"m 919 657 b 1238 1076 882 915 1018 1076 b 1485 649 1413 1076 1483 985 l 1488 186 b 1319 -21 1489 28 1397 -21 b 1167 140 1203 -21 1167 69 b 1213 342 1167 200 1197 288 l 1369 896 b 1217 928 1401 1011 1254 1051 l 997 203 b 818 -21 956 64 911 -21 b 628 175 754 -21 703 25 l 467 494 b 414 818 425 578 396 703 l 426 897 b 317 1004 438 968 381 1004 b 193 867 239 1004 193 946 b 224 735 193 828 211 765 l 415 264 b 294 -21 474 121 444 -21 b 90 364 113 -21 90 163 l 90 657 b 344 1078 90 969 183 1078 b 606 878 454 1078 546 1022 l 831 332 b 906 264 851 281 879 264 b 956 410 950 264 971 308 "},"N":{"ha":1225,"x_min":0,"x_max":0,"o":"m 269 -21 b 83 319 88 -21 83 118 l 83 694 b 297 1076 83 1007 149 1076 b 551 860 407 1076 468 990 l 881 344 b 958 272 914 292 933 272 b 1010 318 993 272 1010 288 b 981 421 1010 343 999 375 l 853 750 b 821 917 818 839 821 883 b 974 1078 821 988 857 1078 b 1139 817 1111 1078 1153 944 l 1068 174 b 917 -21 1053 40 1007 -21 b 690 175 832 -21 789 39 l 460 494 b 364 810 404 571 346 694 l 376 889 b 294 996 388 960 344 996 b 171 858 217 996 171 938 b 196 726 171 819 183 757 l 385 264 b 269 -21 447 110 419 -21 "},"Ń":{"ha":1225,"x_min":0,"x_max":0,"o":"m 557 1117 b 532 1161 528 1111 514 1146 l 735 1328 b 893 1288 790 1374 874 1353 b 811 1165 910 1233 890 1181 m 269 -21 b 83 319 88 -21 83 118 l 83 694 b 297 1076 83 1007 149 1076 b 551 860 407 1076 468 990 l 881 344 b 958 272 914 292 933 272 b 1010 318 993 272 1010 288 b 981 421 1010 343 999 375 l 853 750 b 821 917 818 839 821 883 b 974 1078 821 988 857 1078 b 1139 817 1111 1078 1153 944 l 1068 174 b 917 -21 1053 40 1007 -21 b 690 175 832 -21 789 39 l 460 494 b 364 810 404 571 346 694 l 376 889 b 294 996 388 960 344 996 b 171 858 217 996 171 938 b 196 726 171 819 183 757 l 385 264 b 269 -21 447 110 419 -21 "},"Ň":{"ha":1225,"x_min":0,"x_max":0,"o":"m 606 1163 b 642 1185 618 1163 631 1169 l 719 1297 b 794 1349 749 1339 769 1349 b 883 1239 849 1349 883 1310 b 794 1136 883 1186 860 1142 b 606 1128 732 1131 668 1126 b 417 1136 543 1126 479 1131 b 328 1239 351 1142 328 1186 b 417 1349 328 1310 363 1349 b 492 1297 442 1349 463 1339 l 569 1185 b 606 1163 581 1169 593 1163 m 269 -21 b 83 319 88 -21 83 118 l 83 694 b 297 1076 83 1007 149 1076 b 551 860 407 1076 468 990 l 881 344 b 958 272 914 292 933 272 b 1010 318 993 272 1010 288 b 981 421 1010 343 999 375 l 853 750 b 821 917 818 839 821 883 b 974 1078 821 988 857 1078 b 1139 817 1111 1078 1153 944 l 1068 174 b 917 -21 1053 40 1007 -21 b 690 175 832 -21 789 39 l 460 494 b 364 810 404 571 346 694 l 376 889 b 294 996 388 960 344 996 b 171 858 217 996 171 938 b 196 726 171 819 183 757 l 385 264 b 269 -21 447 110 419 -21 "},"Ņ":{"ha":1225,"x_min":0,"x_max":0,"o":"m 269 -21 b 83 319 88 -21 83 118 l 83 694 b 297 1076 83 1007 149 1076 b 551 860 407 1076 468 990 l 881 344 b 958 272 914 292 933 272 b 1010 318 993 272 1010 288 b 981 421 1010 343 999 375 l 853 750 b 821 917 818 839 821 883 b 974 1078 821 988 857 1078 b 1139 817 1111 1078 1153 944 l 1068 174 b 917 -21 1053 40 1007 -21 b 690 175 832 -21 789 39 l 460 494 b 364 810 404 571 346 694 l 376 889 b 294 996 388 960 344 996 b 171 858 217 996 171 938 b 196 726 171 819 183 757 l 385 264 b 269 -21 447 110 419 -21 m 449 -110 b 640 -36 453 -11 563 -8 b 683 -221 739 -71 763 -172 l 489 -340 b 440 -306 464 -356 439 -342 "},"Ŋ":{"ha":1225,"x_min":0,"x_max":0,"o":"m 460 494 b 364 810 397 568 346 694 l 376 889 b 294 996 388 960 344 996 b 171 858 217 996 171 938 b 196 726 171 819 183 757 l 385 264 b 269 -21 447 110 419 -21 b 83 319 88 -21 83 118 l 83 694 b 297 1076 83 1007 149 1076 b 551 860 407 1076 468 990 l 881 344 b 958 272 914 292 933 272 b 1010 318 993 272 1010 288 b 981 421 1010 343 999 375 l 853 750 b 821 917 818 839 821 883 b 974 1078 821 988 857 1078 b 1139 817 1111 1078 1153 944 l 1042 -33 b 792 -278 1024 -178 968 -278 b 632 -160 688 -278 632 -226 b 769 -93 632 -81 713 -65 l 871 -142 b 935 -106 910 -160 935 -133 b 865 14 935 -81 922 -54 "},"Ñ":{"ha":1225,"x_min":0,"x_max":0,"o":"m 660 1218 b 714 1218 681 1196 697 1193 l 767 1294 b 919 1268 814 1363 911 1340 b 719 1126 932 1161 849 1126 b 579 1208 669 1126 629 1147 l 553 1240 b 499 1240 532 1265 515 1265 l 446 1164 b 288 1183 407 1107 310 1111 b 493 1332 254 1290 364 1332 b 636 1244 543 1332 581 1307 m 269 -21 b 83 319 88 -21 83 118 l 83 694 b 297 1076 83 1007 149 1076 b 551 860 407 1076 468 990 l 881 344 b 958 272 914 292 933 272 b 1010 318 993 272 1010 288 b 981 421 1010 343 999 375 l 853 750 b 821 917 818 839 821 883 b 974 1078 821 988 857 1078 b 1139 817 1111 1078 1153 944 l 1068 174 b 917 -21 1053 40 1007 -21 b 690 175 832 -21 789 39 l 460 494 b 364 810 404 571 346 694 l 376 889 b 294 996 388 960 344 996 b 171 858 217 996 171 938 b 196 726 171 819 183 757 l 385 264 b 269 -21 447 110 419 -21 "},"O":{"ha":1151,"x_min":0,"x_max":0,"o":"m 575 -21 b 83 531 253 -21 83 167 b 575 1076 83 894 253 1076 b 1068 531 899 1076 1068 894 b 575 -21 1068 167 899 -21 m 965 543 b 932 689 1013 600 999 663 l 406 900 b 247 742 294 944 207 872 l 435 143 b 599 100 457 71 546 38 "},"Ó":{"ha":1151,"x_min":0,"x_max":0,"o":"m 515 1117 b 490 1161 486 1111 472 1146 l 693 1328 b 851 1288 749 1374 832 1353 b 769 1165 868 1233 849 1181 m 575 -21 b 83 531 253 -21 83 167 b 575 1076 83 894 253 1076 b 1068 531 899 1076 1068 894 b 575 -21 1068 167 899 -21 m 965 543 b 932 689 1013 600 999 663 l 406 900 b 247 742 294 944 207 872 l 435 143 b 599 100 457 71 546 38 "},"Ô":{"ha":1151,"x_min":0,"x_max":0,"o":"m 571 1314 b 535 1292 558 1314 546 1307 l 457 1179 b 382 1128 428 1138 407 1128 b 293 1238 328 1128 293 1167 b 382 1340 293 1290 317 1335 b 571 1349 444 1346 508 1350 b 760 1340 633 1350 697 1346 b 849 1238 825 1335 849 1290 b 760 1128 849 1167 814 1128 b 685 1179 735 1128 714 1138 l 607 1292 b 571 1314 596 1307 583 1314 m 575 -21 b 83 531 253 -21 83 167 b 575 1076 83 894 253 1076 b 1068 531 899 1076 1068 894 b 575 -21 1068 167 899 -21 m 965 543 b 932 689 1013 600 999 663 l 406 900 b 247 742 294 944 207 872 l 435 143 b 599 100 457 71 546 38 "},"Ö":{"ha":1151,"x_min":0,"x_max":0,"o":"m 418 1160 b 310 1224 344 1147 321 1181 b 446 1354 289 1304 375 1343 b 542 1288 488 1361 528 1346 b 418 1160 563 1204 489 1171 m 669 1183 b 613 1297 600 1214 599 1254 b 799 1332 639 1375 733 1361 b 843 1224 838 1314 863 1279 b 669 1183 814 1142 733 1154 m 575 -21 b 83 531 253 -21 83 167 b 575 1076 83 894 253 1076 b 1068 531 899 1076 1068 894 b 575 -21 1068 167 899 -21 m 965 543 b 932 689 1013 600 999 663 l 406 900 b 247 742 294 944 207 872 l 435 143 b 599 100 457 71 546 38 "},"Ò":{"ha":1151,"x_min":0,"x_max":0,"o":"m 357 1165 b 275 1288 278 1181 258 1233 b 433 1328 294 1353 378 1374 l 636 1161 b 611 1117 654 1146 640 1111 m 575 -21 b 83 531 253 -21 83 167 b 575 1076 83 894 253 1076 b 1068 531 899 1076 1068 894 b 575 -21 1068 167 899 -21 m 965 543 b 932 689 1013 600 999 663 l 406 900 b 247 742 294 944 207 872 l 435 143 b 599 100 457 71 546 38 "},"Ő":{"ha":1151,"x_min":0,"x_max":0,"o":"m 685 1097 b 654 1139 656 1089 638 1121 l 833 1329 b 996 1310 883 1382 968 1372 b 931 1178 1019 1258 1007 1204 m 406 1114 b 376 1147 382 1104 364 1131 l 519 1325 b 661 1319 558 1375 633 1372 b 613 1201 685 1276 678 1228 m 575 -21 b 83 531 253 -21 83 167 b 575 1076 83 894 253 1076 b 1068 531 899 1076 1068 894 b 575 -21 1068 167 899 -21 m 965 543 b 932 689 1013 600 999 663 l 406 900 b 247 742 294 944 207 872 l 435 143 b 599 100 457 71 546 38 "},"Ō":{"ha":1151,"x_min":0,"x_max":0,"o":"m 386 1165 b 325 1210 344 1167 325 1178 b 389 1263 325 1240 349 1257 l 706 1308 b 857 1256 808 1324 844 1307 b 760 1156 871 1200 844 1153 m 575 -21 b 83 531 253 -21 83 167 b 575 1076 83 894 253 1076 b 1068 531 899 1076 1068 894 b 575 -21 1068 167 899 -21 m 965 543 b 932 689 1013 600 999 663 l 406 900 b 247 742 294 944 207 872 l 435 143 b 599 100 457 71 546 38 "},"Ø":{"ha":1181,"x_min":0,"x_max":0,"o":"m 1006 775 b 1081 403 1006 643 1081 663 b 575 -21 1081 125 860 -21 b 297 43 464 -21 369 -3 b 210 46 258 68 238 69 l 149 -8 b 110 24 118 -36 82 -12 l 167 99 b 163 176 186 124 175 156 b 83 525 110 263 83 381 b 515 1076 83 865 233 1076 b 831 1006 700 1076 767 1006 b 972 1076 885 1006 900 1076 b 1097 949 1039 1076 1097 1017 b 1006 775 1097 863 1006 849 m 214 281 b 242 222 203 250 214 222 b 285 253 254 222 269 232 l 646 729 b 694 854 681 775 694 818 b 549 994 694 939 619 994 b 435 913 500 994 454 969 m 881 354 b 1003 528 968 396 1003 464 b 881 672 1003 604 951 672 b 763 611 844 672 804 654 l 367 196 b 342 147 350 178 342 161 b 406 128 342 118 372 114 "},"Õ":{"ha":1151,"x_min":0,"x_max":0,"o":"m 618 1218 b 672 1218 639 1196 656 1193 l 725 1294 b 878 1268 772 1363 869 1340 b 678 1126 890 1161 807 1126 b 538 1208 628 1126 588 1147 l 511 1240 b 457 1240 490 1265 474 1265 l 404 1164 b 246 1183 365 1107 268 1111 b 451 1332 213 1290 322 1332 b 594 1244 501 1332 539 1307 m 575 -21 b 83 531 253 -21 83 167 b 575 1076 83 894 253 1076 b 1068 531 899 1076 1068 894 b 575 -21 1068 167 899 -21 m 965 543 b 932 689 1013 600 999 663 l 406 900 b 247 742 294 944 207 872 l 435 143 b 599 100 457 71 546 38 "},"Œ":{"ha":2050,"x_min":0,"x_max":0,"o":"m 575 -21 b 83 531 253 -21 83 167 b 575 1076 83 894 253 1076 b 1025 718 808 1076 946 997 b 1071 663 1035 683 1047 663 b 1133 690 1097 663 1110 671 l 1496 986 b 1681 1072 1561 1039 1622 1072 b 1826 919 1767 1072 1826 1001 b 1650 760 1826 829 1750 785 l 1203 646 b 1138 588 1157 635 1132 617 b 1222 557 1143 557 1168 547 l 1872 674 b 2022 554 1961 690 2022 656 b 1872 436 2022 454 1961 428 l 1222 496 b 1138 465 1168 501 1143 496 b 1203 407 1132 436 1157 417 l 1719 293 b 1896 133 1819 271 1896 224 b 1750 -19 1896 51 1836 -19 b 1565 63 1692 -19 1635 15 l 1133 363 b 1071 390 1108 381 1097 390 b 1025 335 1047 390 1035 369 b 575 -21 946 56 808 -21 m 1021 460 b 988 606 1075 507 1050 574 l 406 900 b 247 742 301 953 207 872 l 435 143 b 599 100 457 71 538 47 "},"P":{"ha":1119,"x_min":0,"x_max":0,"o":"m 639 1056 b 1078 624 943 1056 1078 906 b 781 258 1078 415 990 258 b 486 429 661 258 579 307 l 326 639 b 183 639 292 683 226 686 b 189 496 146 597 153 536 l 360 304 b 440 118 417 239 440 186 b 274 -21 440 21 381 -21 b 90 186 178 -21 90 11 l 90 785 b 356 1056 90 940 175 1056 m 294 768 b 343 706 294 744 308 724 l 825 461 b 971 582 965 390 1043 479 l 760 885 b 610 932 710 956 685 963 l 353 826 b 294 768 317 811 294 797 "},"Þ":{"ha":1119,"x_min":0,"x_max":0,"o":"m 825 997 b 1078 718 1035 997 1078 833 l 1078 343 b 825 64 1078 228 1035 64 b 551 178 706 64 642 99 l 243 421 b 189 349 169 475 126 403 b 406 97 326 244 406 183 b 253 -21 406 38 360 -21 b 90 161 157 -21 90 54 l 90 900 b 253 1082 90 1007 157 1082 b 406 964 360 1082 406 1024 b 189 713 406 878 326 817 b 243 640 126 658 169 586 l 551 883 b 825 997 642 963 706 997 m 789 454 b 743 531 758 472 743 501 b 789 607 743 560 758 589 l 950 704 b 899 818 1036 746 988 850 l 356 626 b 239 531 289 603 239 581 b 356 435 239 475 301 454 l 899 243 b 950 357 988 211 1036 315 "},"Q":{"ha":1311,"x_min":0,"x_max":0,"o":"m 1093 19 b 1218 -142 1188 0 1218 -68 b 1065 -278 1218 -210 1167 -278 b 896 -199 1007 -278 943 -242 l 593 79 b 554 93 582 90 572 93 b 324 -21 499 93 444 -21 b 88 367 147 -21 65 157 b 699 1076 117 642 294 1076 b 1219 406 1022 1076 1219 769 b 936 175 1219 210 1128 154 l 743 196 b 668 153 692 201 671 183 b 733 92 665 119 683 101 m 367 231 b 447 129 369 172 403 133 b 574 181 486 125 515 138 l 1003 497 b 1089 626 1057 538 1089 588 b 1004 736 1089 683 1054 722 l 538 861 b 340 701 386 901 333 832 "},"R":{"ha":1199,"x_min":0,"x_max":0,"o":"m 1121 154 b 929 -21 1121 67 1074 -21 b 724 99 874 -21 800 6 l 381 514 b 336 601 350 553 336 582 b 417 640 338 638 365 647 l 839 586 b 1036 706 988 567 1036 633 b 882 826 1036 774 983 826 l 447 826 b 226 643 304 826 226 742 b 244 563 226 617 233 589 l 386 229 b 265 -21 440 101 424 -21 b 83 244 179 -21 83 46 b 704 1076 83 717 282 1076 b 1129 735 1047 1076 1129 860 b 899 486 1129 640 1094 556 l 671 406 b 611 344 638 394 611 378 b 686 301 611 313 633 301 l 960 299 b 1121 154 1051 297 1121 240 "},"Ŕ":{"ha":1199,"x_min":0,"x_max":0,"o":"m 649 1117 b 624 1161 619 1111 606 1146 l 826 1328 b 985 1288 882 1374 965 1353 b 903 1165 1001 1233 982 1181 m 1121 154 b 929 -21 1121 67 1074 -21 b 724 99 874 -21 800 6 l 381 514 b 336 601 350 553 336 582 b 417 640 338 638 365 647 l 839 586 b 1036 706 988 567 1036 633 b 882 826 1036 774 983 826 l 447 826 b 226 643 304 826 226 742 b 244 563 226 617 233 589 l 386 229 b 265 -21 440 101 424 -21 b 83 244 179 -21 83 46 b 704 1076 83 717 282 1076 b 1129 735 1047 1076 1129 860 b 899 486 1129 640 1094 556 l 671 406 b 611 344 638 394 611 378 b 686 301 611 313 633 301 l 960 299 b 1121 154 1051 297 1121 240 "},"Ř":{"ha":1199,"x_min":0,"x_max":0,"o":"m 697 1163 b 733 1185 710 1163 722 1169 l 811 1297 b 886 1349 840 1339 861 1349 b 975 1239 940 1349 975 1310 b 886 1136 975 1186 951 1142 b 697 1128 824 1131 760 1126 b 508 1136 635 1126 571 1131 b 419 1239 443 1142 419 1186 b 508 1349 419 1310 454 1349 b 583 1297 533 1349 554 1339 l 661 1185 b 697 1163 672 1169 685 1163 m 1121 154 b 929 -21 1121 67 1074 -21 b 724 99 874 -21 800 6 l 381 514 b 336 601 350 553 336 582 b 417 640 338 638 365 647 l 839 586 b 1036 706 988 567 1036 633 b 882 826 1036 774 983 826 l 447 826 b 226 643 304 826 226 742 b 244 563 226 617 233 589 l 386 229 b 265 -21 440 101 424 -21 b 83 244 179 -21 83 46 b 704 1076 83 717 282 1076 b 1129 735 1047 1076 1129 860 b 899 486 1129 640 1094 556 l 671 406 b 611 344 638 394 611 378 b 686 301 611 313 633 301 l 960 299 b 1121 154 1051 297 1121 240 "},"Ŗ":{"ha":1199,"x_min":0,"x_max":0,"o":"m 1121 154 b 929 -21 1121 67 1074 -21 b 724 99 874 -21 800 6 l 381 514 b 336 601 350 553 336 582 b 417 640 338 638 365 647 l 839 586 b 1036 706 988 567 1036 633 b 882 826 1036 774 983 826 l 447 826 b 226 643 304 826 226 742 b 244 563 226 617 233 589 l 386 229 b 265 -21 440 101 424 -21 b 83 244 179 -21 83 46 b 704 1076 83 717 282 1076 b 1129 735 1047 1076 1129 860 b 899 486 1129 640 1094 556 l 671 406 b 611 344 638 394 611 378 b 686 301 611 313 633 301 l 960 299 b 1121 154 1051 297 1121 240 m 449 -110 b 640 -36 453 -11 563 -8 b 683 -221 739 -71 763 -172 l 489 -340 b 440 -306 464 -356 439 -342 "},"S":{"ha":1158,"x_min":0,"x_max":0,"o":"m 506 -19 b 58 318 172 -19 58 157 b 172 483 58 394 89 483 b 281 368 239 483 281 426 l 281 132 b 406 71 281 65 322 31 l 892 306 b 986 407 950 333 1000 356 b 882 443 972 458 929 465 l 588 307 b 363 435 456 246 365 335 l 361 488 b 282 558 360 539 338 546 l 194 579 b 100 706 138 593 100 649 b 592 1079 100 947 347 1079 b 1069 726 832 1079 1069 976 b 950 560 1069 628 1032 560 b 889 725 896 560 814 613 l 950 817 b 949 876 967 842 963 867 b 851 881 926 892 897 890 l 253 751 b 183 683 193 739 179 713 b 250 632 188 653 206 640 l 957 504 b 1075 368 1036 490 1075 435 b 506 -19 1075 175 824 -19 "},"Ś":{"ha":1158,"x_min":0,"x_max":0,"o":"m 539 1117 b 514 1161 510 1111 496 1146 l 717 1328 b 875 1288 772 1374 856 1353 b 793 1165 892 1233 872 1181 m 506 -19 b 58 318 172 -19 58 157 b 172 483 58 394 89 483 b 281 368 239 483 281 426 l 281 132 b 406 71 281 65 322 31 l 892 306 b 986 407 950 333 1000 356 b 882 443 972 458 929 465 l 588 307 b 363 435 456 246 365 335 l 361 488 b 282 558 360 539 338 546 l 194 579 b 100 706 138 593 100 649 b 592 1079 100 947 347 1079 b 1069 726 832 1079 1069 976 b 950 560 1069 628 1032 560 b 889 725 896 560 814 613 l 950 817 b 949 876 967 842 963 867 b 851 881 926 892 897 890 l 253 751 b 183 683 193 739 179 713 b 250 632 188 653 206 640 l 957 504 b 1075 368 1036 490 1075 435 b 506 -19 1075 175 824 -19 "},"Š":{"ha":1158,"x_min":0,"x_max":0,"o":"m 588 1163 b 624 1185 600 1163 613 1169 l 701 1297 b 776 1349 731 1339 751 1349 b 865 1239 831 1349 865 1310 b 776 1136 865 1186 842 1142 b 588 1128 714 1131 650 1126 b 399 1136 525 1126 461 1131 b 310 1239 333 1142 310 1186 b 399 1349 310 1310 344 1349 b 474 1297 424 1349 444 1339 l 551 1185 b 588 1163 563 1169 575 1163 m 506 -19 b 58 318 172 -19 58 157 b 172 483 58 394 89 483 b 281 368 239 483 281 426 l 281 132 b 406 71 281 65 322 31 l 892 306 b 986 407 950 333 1000 356 b 882 443 972 458 929 465 l 588 307 b 363 435 456 246 365 335 l 361 488 b 282 558 360 539 338 546 l 194 579 b 100 706 138 593 100 649 b 592 1079 100 947 347 1079 b 1069 726 832 1079 1069 976 b 950 560 1069 628 1032 560 b 889 725 896 560 814 613 l 950 817 b 949 876 967 842 963 867 b 851 881 926 892 897 890 l 253 751 b 183 683 193 739 179 713 b 250 632 188 653 206 640 l 957 504 b 1075 368 1036 490 1075 435 b 506 -19 1075 175 824 -19 "},"Ş":{"ha":1158,"x_min":0,"x_max":0,"o":"m 1075 368 b 604 -12 1075 196 875 22 b 611 -53 593 -47 594 -53 b 689 -40 632 -53 653 -40 b 810 -147 746 -40 810 -87 b 467 -267 810 -261 649 -300 b 315 -157 363 -246 307 -214 b 451 -107 325 -89 400 -64 l 483 -133 l 528 -19 l 506 -19 b 58 318 172 -19 58 157 b 172 483 58 394 89 483 b 281 368 239 483 281 426 l 281 132 b 406 71 281 65 322 31 l 892 306 b 986 407 950 333 1000 356 b 882 443 972 458 929 465 l 588 307 b 363 435 456 246 365 335 l 361 488 b 282 558 360 539 338 546 l 194 579 b 100 706 138 593 100 649 b 592 1079 100 947 347 1079 b 1069 726 832 1079 1069 976 b 950 560 1069 628 1032 560 b 889 725 896 560 814 613 l 950 817 b 949 876 967 842 963 867 b 851 881 926 892 897 890 l 253 751 b 183 683 193 739 179 713 b 250 632 188 653 206 640 l 957 504 b 1075 368 1036 490 1075 435 m 688 -110 b 590 -140 660 -110 632 -114 b 624 -215 556 -162 571 -215 b 735 -150 688 -215 735 -182 b 688 -110 735 -125 717 -110 "},"Ș":{"ha":1158,"x_min":0,"x_max":0,"o":"m 506 -19 b 58 318 172 -19 58 157 b 172 483 58 394 89 483 b 281 368 239 483 281 426 l 281 132 b 406 71 281 65 322 31 l 892 306 b 986 407 950 333 1000 356 b 882 443 972 458 929 465 l 588 307 b 363 435 456 246 365 335 l 361 488 b 282 558 360 539 338 546 l 194 579 b 100 706 138 593 100 649 b 592 1079 100 947 347 1079 b 1069 726 832 1079 1069 976 b 950 560 1069 628 1032 560 b 889 725 896 560 814 613 l 950 817 b 949 876 967 842 963 867 b 851 881 926 892 897 890 l 253 751 b 183 683 193 739 179 713 b 250 632 188 653 206 640 l 957 504 b 1075 368 1036 490 1075 435 b 506 -19 1075 175 824 -19 m 449 -146 b 640 -72 454 -47 563 -44 b 683 -221 739 -107 763 -172 l 489 -340 b 440 -306 464 -356 439 -342 "},"T":{"ha":1063,"x_min":0,"x_max":0,"o":"m 753 238 b 631 -21 810 86 779 -21 b 467 203 497 -21 469 56 l 451 882 b 397 1006 450 969 435 1006 b 336 899 350 1006 336 960 l 336 838 b 169 558 336 646 296 554 b 14 724 81 561 14 638 b 418 1056 14 917 167 1056 l 893 1056 b 1083 901 1038 1056 1083 972 b 750 803 1083 742 878 661 l 594 976 b 553 999 581 992 565 999 b 529 888 515 999 501 967 "},"Ŧ":{"ha":1063,"x_min":0,"x_max":0,"o":"m 14 724 b 418 1056 14 917 167 1056 l 893 1056 b 1083 901 1038 1056 1083 972 b 750 803 1083 742 878 661 l 594 976 b 553 999 581 992 565 999 b 529 888 515 999 504 968 l 636 543 b 711 515 646 507 667 493 l 832 572 b 983 519 924 615 971 571 b 886 406 997 464 971 396 l 728 424 b 696 374 693 428 686 400 l 753 238 b 631 -21 814 88 779 -21 b 467 203 497 -21 460 56 l 474 358 b 425 383 475 383 457 397 l 289 321 b 138 374 196 278 150 322 b 235 488 124 429 150 496 l 432 469 b 472 506 461 467 474 479 l 451 882 b 397 1006 446 969 435 1006 b 336 899 350 1006 336 960 l 336 838 b 169 558 336 646 296 554 b 14 724 81 561 14 638 "},"Ť":{"ha":1063,"x_min":0,"x_max":0,"o":"m 483 1163 b 519 1185 496 1163 508 1169 l 597 1297 b 672 1349 626 1339 647 1349 b 761 1239 726 1349 761 1310 b 672 1136 761 1186 738 1142 b 483 1128 610 1131 546 1126 b 294 1136 421 1126 357 1131 b 206 1239 229 1142 206 1186 b 294 1349 206 1310 240 1349 b 369 1297 319 1349 340 1339 l 447 1185 b 483 1163 458 1169 471 1163 m 753 238 b 631 -21 810 86 779 -21 b 467 203 497 -21 469 56 l 451 882 b 397 1006 450 969 435 1006 b 336 899 350 1006 336 960 l 336 838 b 169 558 336 646 296 554 b 14 724 81 561 14 638 b 418 1056 14 917 167 1056 l 893 1056 b 1083 901 1038 1056 1083 972 b 750 803 1083 742 878 661 l 594 976 b 553 999 581 992 565 999 b 529 888 515 999 501 967 "},"Ţ":{"ha":1063,"x_min":0,"x_max":0,"o":"m 893 1056 b 1083 901 1038 1056 1083 972 b 750 803 1083 742 878 661 l 594 976 b 553 999 581 992 565 999 b 529 888 515 999 501 967 l 753 238 b 688 -14 801 108 786 11 b 694 -53 676 -47 678 -53 b 772 -40 715 -53 736 -40 b 893 -147 829 -40 893 -87 b 550 -267 893 -261 732 -300 b 399 -157 446 -246 390 -214 b 535 -107 408 -89 483 -64 l 567 -133 l 611 -21 b 467 203 494 -12 469 63 l 451 882 b 397 1006 450 969 435 1006 b 336 899 350 1006 336 960 l 336 838 b 169 558 336 646 296 554 b 14 724 81 561 14 638 b 418 1056 14 917 167 1056 m 771 -110 b 674 -140 743 -110 715 -114 b 707 -215 639 -162 654 -215 b 818 -150 771 -215 818 -182 b 771 -110 818 -125 800 -110 "},"Ț":{"ha":1063,"x_min":0,"x_max":0,"o":"m 753 238 b 631 -21 810 86 779 -21 b 467 203 497 -21 469 56 l 451 882 b 397 1006 450 969 435 1006 b 336 899 350 1006 336 960 l 336 838 b 169 558 336 646 296 554 b 14 724 81 561 14 638 b 418 1056 14 917 167 1056 l 893 1056 b 1083 901 1038 1056 1083 972 b 750 803 1083 742 878 661 l 594 976 b 553 999 581 992 565 999 b 529 888 515 999 501 967 m 528 -146 b 719 -72 533 -47 642 -44 b 763 -221 818 -107 842 -172 l 568 -340 b 519 -306 543 -356 518 -342 "},"U":{"ha":1100,"x_min":0,"x_max":0,"o":"m 560 629 b 700 771 449 750 563 882 l 861 640 b 926 638 890 617 915 626 b 924 708 942 653 951 676 l 843 801 b 751 960 782 872 751 908 b 878 1076 751 1026 799 1076 b 1017 893 978 1076 1017 1014 l 1017 372 b 556 -21 1017 104 857 -21 b 83 410 275 -21 83 146 l 83 860 b 246 1076 83 1014 140 1076 b 364 818 394 1076 431 917 l 193 565 b 238 364 136 481 156 406 l 632 161 b 867 167 751 100 825 108 b 843 322 908 225 875 289 "},"Ú":{"ha":1100,"x_min":0,"x_max":0,"o":"m 499 1117 b 474 1161 469 1111 456 1146 l 676 1328 b 835 1288 732 1374 815 1353 b 753 1165 851 1233 832 1181 m 560 629 b 700 771 449 750 563 882 l 861 640 b 926 638 890 617 915 626 b 924 708 942 653 951 676 l 843 801 b 751 960 782 872 751 908 b 878 1076 751 1026 799 1076 b 1017 893 978 1076 1017 1014 l 1017 372 b 556 -21 1017 104 857 -21 b 83 410 275 -21 83 146 l 83 860 b 246 1076 83 1014 140 1076 b 364 818 394 1076 431 917 l 193 565 b 238 364 136 481 156 406 l 632 161 b 867 167 751 100 825 108 b 843 322 908 225 875 289 "},"Û":{"ha":1100,"x_min":0,"x_max":0,"o":"m 554 1314 b 518 1292 542 1314 529 1307 l 440 1179 b 365 1128 411 1138 390 1128 b 276 1238 311 1128 276 1167 b 365 1340 276 1290 300 1335 b 554 1349 428 1346 492 1350 b 743 1340 617 1350 681 1346 b 832 1238 808 1335 832 1290 b 743 1128 832 1167 797 1128 b 668 1179 718 1128 697 1138 l 590 1292 b 554 1314 579 1307 567 1314 m 560 629 b 700 771 449 750 563 882 l 861 640 b 926 638 890 617 915 626 b 924 708 942 653 951 676 l 843 801 b 751 960 782 872 751 908 b 878 1076 751 1026 799 1076 b 1017 893 978 1076 1017 1014 l 1017 372 b 556 -21 1017 104 857 -21 b 83 410 275 -21 83 146 l 83 860 b 246 1076 83 1014 140 1076 b 364 818 394 1076 431 917 l 193 565 b 238 364 136 481 156 406 l 632 161 b 867 167 751 100 825 108 b 843 322 908 225 875 289 "},"Ü":{"ha":1100,"x_min":0,"x_max":0,"o":"m 401 1160 b 293 1224 328 1147 304 1181 b 429 1354 272 1304 358 1343 b 525 1288 471 1361 511 1346 b 401 1160 546 1204 472 1171 m 653 1183 b 596 1297 583 1214 582 1254 b 782 1332 622 1375 717 1361 b 826 1224 821 1314 846 1279 b 653 1183 797 1142 717 1154 m 560 629 b 700 771 449 750 563 882 l 861 640 b 926 638 890 617 915 626 b 924 708 942 653 951 676 l 843 801 b 751 960 782 872 751 908 b 878 1076 751 1026 799 1076 b 1017 893 978 1076 1017 1014 l 1017 372 b 556 -21 1017 104 857 -21 b 83 410 275 -21 83 146 l 83 860 b 246 1076 83 1014 140 1076 b 364 818 394 1076 431 917 l 193 565 b 238 364 136 481 156 406 l 632 161 b 867 167 751 100 825 108 b 843 322 908 225 875 289 "},"Ù":{"ha":1100,"x_min":0,"x_max":0,"o":"m 340 1165 b 258 1288 261 1181 242 1233 b 417 1328 278 1353 361 1374 l 619 1161 b 594 1117 638 1146 624 1111 m 560 629 b 700 771 449 750 563 882 l 861 640 b 926 638 890 617 915 626 b 924 708 942 653 951 676 l 843 801 b 751 960 782 872 751 908 b 878 1076 751 1026 799 1076 b 1017 893 978 1076 1017 1014 l 1017 372 b 556 -21 1017 104 857 -21 b 83 410 275 -21 83 146 l 83 860 b 246 1076 83 1014 140 1076 b 364 818 394 1076 431 917 l 193 565 b 238 364 136 481 156 406 l 632 161 b 867 167 751 100 825 108 b 843 322 908 225 875 289 "},"Ű":{"ha":1100,"x_min":0,"x_max":0,"o":"m 668 1097 b 638 1139 639 1089 621 1121 l 817 1329 b 979 1310 867 1382 951 1372 b 914 1178 1003 1258 990 1204 m 389 1114 b 360 1147 365 1104 347 1131 l 503 1325 b 644 1319 542 1375 617 1372 b 596 1201 668 1276 661 1228 m 560 629 b 700 771 449 750 563 882 l 861 640 b 926 638 890 617 915 626 b 924 708 942 653 951 676 l 843 801 b 751 960 782 872 751 908 b 878 1076 751 1026 799 1076 b 1017 893 978 1076 1017 1014 l 1017 372 b 556 -21 1017 104 857 -21 b 83 410 275 -21 83 146 l 83 860 b 246 1076 83 1014 140 1076 b 364 818 394 1076 431 917 l 193 565 b 238 364 136 481 156 406 l 632 161 b 867 167 751 100 825 108 b 843 322 908 225 875 289 "},"Ū":{"ha":1100,"x_min":0,"x_max":0,"o":"m 369 1165 b 308 1210 328 1167 308 1178 b 372 1263 308 1240 332 1257 l 689 1308 b 840 1256 792 1324 828 1307 b 743 1156 854 1200 828 1153 m 560 629 b 700 771 449 750 563 882 l 861 640 b 926 638 890 617 915 626 b 924 708 942 653 951 676 l 843 801 b 751 960 782 872 751 908 b 878 1076 751 1026 799 1076 b 1017 893 978 1076 1017 1014 l 1017 372 b 556 -21 1017 104 857 -21 b 83 410 275 -21 83 146 l 83 860 b 246 1076 83 1014 140 1076 b 364 818 394 1076 431 917 l 193 565 b 238 364 136 481 156 406 l 632 161 b 867 167 751 100 825 108 b 843 322 908 225 875 289 "},"Ų":{"ha":1100,"x_min":0,"x_max":0,"o":"m 878 1076 b 1017 893 978 1076 1017 1014 l 1017 372 b 744 0 1017 167 924 46 l 632 -51 b 592 -106 601 -65 592 -81 b 656 -142 592 -133 615 -153 l 757 -115 b 889 -172 818 -99 889 -103 b 735 -278 889 -239 822 -278 b 540 -33 576 -278 463 -153 l 549 -21 b 83 410 272 -18 83 149 l 83 860 b 246 1076 83 1014 140 1076 b 364 818 394 1076 431 917 l 193 565 b 238 364 136 481 156 406 l 632 161 b 867 167 751 100 825 108 b 843 322 908 225 875 289 l 560 629 b 700 771 449 750 563 882 l 861 640 b 926 638 890 617 915 626 b 924 708 942 653 951 676 l 843 801 b 751 960 782 872 751 908 b 878 1076 751 1026 799 1076 "},"Ů":{"ha":1100,"x_min":0,"x_max":0,"o":"m 504 1135 b 388 1257 392 1156 378 1203 b 626 1335 406 1354 532 1350 b 728 1217 693 1324 740 1288 b 504 1135 710 1114 597 1118 m 585 1182 b 625 1246 624 1193 629 1218 b 521 1288 618 1297 561 1300 b 489 1225 500 1281 485 1263 b 585 1182 496 1171 544 1171 m 560 629 b 700 771 449 750 563 882 l 861 640 b 926 638 890 617 915 626 b 924 708 942 653 951 676 l 843 801 b 751 960 782 872 751 908 b 878 1076 751 1026 799 1076 b 1017 893 978 1076 1017 1014 l 1017 372 b 556 -21 1017 104 857 -21 b 83 410 275 -21 83 146 l 83 860 b 246 1076 83 1014 140 1076 b 364 818 394 1076 431 917 l 193 565 b 238 364 136 481 156 406 l 632 161 b 867 167 751 100 825 108 b 843 322 908 225 875 289 "},"V":{"ha":1058,"x_min":0,"x_max":0,"o":"m 371 281 b 329 154 353 238 329 189 b 408 65 329 96 360 65 b 535 231 483 65 514 168 l 775 951 b 936 1076 804 1039 863 1076 b 1072 924 1004 1076 1072 1025 b 993 754 1072 865 1028 808 l 590 111 b 403 -21 519 -3 474 -21 b 243 111 336 -21 268 15 l 64 800 b 42 915 53 840 42 883 b 203 1076 42 1013 119 1076 b 333 947 278 1076 335 1026 b 229 768 332 888 249 792 b 203 672 197 729 182 693 b 285 694 229 646 249 667 l 381 771 b 504 842 431 811 465 842 b 579 771 550 842 579 808 b 521 629 579 735 551 700 "},"W":{"ha":1592,"x_min":0,"x_max":0,"o":"m 1222 825 b 1172 936 1193 865 1172 901 b 1349 1076 1172 1014 1242 1076 b 1522 653 1457 1076 1522 972 b 1054 -21 1522 382 1353 -21 b 918 368 847 -21 804 128 l 1022 589 b 1029 624 1028 600 1029 614 b 1000 654 1029 639 1022 654 b 950 617 982 654 964 636 l 563 74 b 392 -21 517 10 449 -21 b 194 189 278 -21 194 51 b 201 269 194 214 196 240 l 325 889 b 281 974 335 943 315 974 b 210 900 249 974 217 953 l 176 647 b 99 563 169 588 143 563 b 42 621 74 563 42 585 b 401 1076 42 813 178 1076 b 622 938 558 1076 622 1021 b 536 726 622 878 588 807 l 335 407 b 282 288 301 356 282 325 b 357 217 282 246 307 217 b 461 308 393 217 417 242 l 778 782 b 939 896 822 849 876 896 b 1047 779 992 896 1026 868 l 1147 339 b 1251 222 1164 268 1194 222 b 1361 307 1290 222 1322 235 l 1415 407 b 1444 490 1433 439 1444 465 b 1421 551 1444 511 1436 531 "},"Ẃ":{"ha":1592,"x_min":0,"x_max":0,"o":"m 836 1117 b 811 1161 807 1111 793 1146 l 1014 1328 b 1172 1288 1069 1374 1153 1353 b 1090 1165 1189 1233 1169 1181 m 1222 825 b 1172 936 1193 865 1172 901 b 1349 1076 1172 1014 1242 1076 b 1522 653 1457 1076 1522 972 b 1054 -21 1522 382 1353 -21 b 918 368 847 -21 804 128 l 1022 589 b 1029 624 1028 600 1029 614 b 1000 654 1029 639 1022 654 b 950 617 982 654 964 636 l 563 74 b 392 -21 517 10 449 -21 b 194 189 278 -21 194 51 b 201 269 194 214 196 240 l 325 889 b 281 974 335 943 315 974 b 210 900 249 974 217 953 l 176 647 b 99 563 169 588 143 563 b 42 621 74 563 42 585 b 401 1076 42 813 178 1076 b 622 938 558 1076 622 1021 b 536 726 622 878 588 807 l 335 407 b 282 288 301 356 282 325 b 357 217 282 246 307 217 b 461 308 393 217 417 242 l 778 782 b 939 896 822 849 876 896 b 1047 779 992 896 1026 868 l 1147 339 b 1251 222 1164 268 1194 222 b 1361 307 1290 222 1322 235 l 1415 407 b 1444 490 1433 439 1444 465 b 1421 551 1444 511 1436 531 "},"Ŵ":{"ha":1592,"x_min":0,"x_max":0,"o":"m 892 1314 b 856 1292 879 1314 867 1307 l 778 1179 b 703 1128 749 1138 728 1128 b 614 1238 649 1128 614 1167 b 703 1340 614 1290 638 1335 b 892 1349 765 1346 829 1350 b 1081 1340 954 1350 1018 1346 b 1169 1238 1146 1335 1169 1290 b 1081 1128 1169 1167 1135 1128 b 1006 1179 1056 1128 1035 1138 l 928 1292 b 892 1314 917 1307 904 1314 m 1222 825 b 1172 936 1193 865 1172 901 b 1349 1076 1172 1014 1242 1076 b 1522 653 1457 1076 1522 972 b 1054 -21 1522 382 1353 -21 b 918 368 847 -21 804 128 l 1022 589 b 1029 624 1028 600 1029 614 b 1000 654 1029 639 1022 654 b 950 617 982 654 964 636 l 563 74 b 392 -21 517 10 449 -21 b 194 189 278 -21 194 51 b 201 269 194 214 196 240 l 325 889 b 281 974 335 943 315 974 b 210 900 249 974 217 953 l 176 647 b 99 563 169 588 143 563 b 42 621 74 563 42 585 b 401 1076 42 813 178 1076 b 622 938 558 1076 622 1021 b 536 726 622 878 588 807 l 335 407 b 282 288 301 356 282 325 b 357 217 282 246 307 217 b 461 308 393 217 417 242 l 778 782 b 939 896 822 849 876 896 b 1047 779 992 896 1026 868 l 1147 339 b 1251 222 1164 268 1194 222 b 1361 307 1290 222 1322 235 l 1415 407 b 1444 490 1433 439 1444 465 b 1421 551 1444 511 1436 531 "},"Ẅ":{"ha":1592,"x_min":0,"x_max":0,"o":"m 739 1160 b 631 1224 665 1147 642 1181 b 767 1354 610 1304 696 1343 b 863 1288 808 1361 849 1346 b 739 1160 883 1204 810 1171 m 990 1183 b 933 1297 921 1214 919 1254 b 1119 1332 960 1375 1054 1361 b 1164 1224 1158 1314 1183 1279 b 990 1183 1135 1142 1054 1154 m 1222 825 b 1172 936 1193 865 1172 901 b 1349 1076 1172 1014 1242 1076 b 1522 653 1457 1076 1522 972 b 1054 -21 1522 382 1353 -21 b 918 368 847 -21 804 128 l 1022 589 b 1029 624 1028 600 1029 614 b 1000 654 1029 639 1022 654 b 950 617 982 654 964 636 l 563 74 b 392 -21 517 10 449 -21 b 194 189 278 -21 194 51 b 201 269 194 214 196 240 l 325 889 b 281 974 335 943 315 974 b 210 900 249 974 217 953 l 176 647 b 99 563 169 588 143 563 b 42 621 74 563 42 585 b 401 1076 42 813 178 1076 b 622 938 558 1076 622 1021 b 536 726 622 878 588 807 l 335 407 b 282 288 301 356 282 325 b 357 217 282 246 307 217 b 461 308 393 217 417 242 l 778 782 b 939 896 822 849 876 896 b 1047 779 992 896 1026 868 l 1147 339 b 1251 222 1164 268 1194 222 b 1361 307 1290 222 1322 235 l 1415 407 b 1444 490 1433 439 1444 465 b 1421 551 1444 511 1436 531 "},"Ẁ":{"ha":1592,"x_min":0,"x_max":0,"o":"m 678 1165 b 596 1288 599 1181 579 1233 b 754 1328 615 1353 699 1374 l 957 1161 b 932 1117 975 1146 961 1111 m 1222 825 b 1172 936 1193 865 1172 901 b 1349 1076 1172 1014 1242 1076 b 1522 653 1457 1076 1522 972 b 1054 -21 1522 382 1353 -21 b 918 368 847 -21 804 128 l 1022 589 b 1029 624 1028 600 1029 614 b 1000 654 1029 639 1022 654 b 950 617 982 654 964 636 l 563 74 b 392 -21 517 10 449 -21 b 194 189 278 -21 194 51 b 201 269 194 214 196 240 l 325 889 b 281 974 335 943 315 974 b 210 900 249 974 217 953 l 176 647 b 99 563 169 588 143 563 b 42 621 74 563 42 585 b 401 1076 42 813 178 1076 b 622 938 558 1076 622 1021 b 536 726 622 878 588 807 l 335 407 b 282 288 301 356 282 325 b 357 217 282 246 307 217 b 461 308 393 217 417 242 l 778 782 b 939 896 822 849 876 896 b 1047 779 992 896 1026 868 l 1147 339 b 1251 222 1164 268 1194 222 b 1361 307 1290 222 1322 235 l 1415 407 b 1444 490 1433 439 1444 465 b 1421 551 1444 511 1436 531 "},"X":{"ha":1108,"x_min":0,"x_max":0,"o":"m 768 890 b 931 1072 774 1028 835 1072 b 1078 953 1024 1072 1078 1015 b 988 742 1078 893 1074 840 l 683 396 b 649 326 657 367 649 347 b 708 275 650 301 660 275 l 928 274 b 1094 118 1046 272 1094 206 b 943 -24 1094 13 1004 -24 b 617 246 832 -24 750 24 l 493 451 b 438 431 481 472 444 465 l 382 139 b 215 -18 364 42 318 -18 b 146 250 50 -18 31 151 l 369 443 b 389 604 429 496 442 529 l 178 904 b 113 879 142 956 97 931 l 171 707 b 135 592 192 643 176 611 b 61 631 114 583 76 593 b 257 1074 8 758 33 1074 b 442 946 344 1074 386 1031 l 700 550 b 756 571 714 529 754 536 "},"Y":{"ha":1071,"x_min":0,"x_max":0,"o":"m 757 938 b 1065 929 751 1131 1069 1118 b 981 736 1064 872 1019 799 l 640 178 b 404 -21 585 86 504 -21 b 397 276 200 -21 176 276 l 528 276 b 593 346 622 276 614 318 l 165 918 b 96 881 126 969 76 932 l 158 718 b 121 594 185 649 165 610 b 50 643 101 588 65 603 b 231 1076 0 775 28 1076 b 408 950 310 1076 347 1038 l 688 547 b 768 565 740 472 769 521 "},"Ý":{"ha":1071,"x_min":0,"x_max":0,"o":"m 493 1117 b 468 1161 464 1111 450 1146 l 671 1328 b 829 1288 726 1374 810 1353 b 747 1165 846 1233 826 1181 m 757 938 b 1065 929 751 1131 1069 1118 b 981 736 1064 872 1019 799 l 640 178 b 404 -21 585 86 504 -21 b 397 276 200 -21 176 276 l 528 276 b 593 346 622 276 614 318 l 165 918 b 96 881 126 969 76 932 l 158 718 b 121 594 185 649 165 610 b 50 643 101 588 65 603 b 231 1076 0 775 28 1076 b 408 950 310 1076 347 1038 l 688 547 b 768 565 740 472 769 521 "},"Ŷ":{"ha":1071,"x_min":0,"x_max":0,"o":"m 549 1314 b 513 1292 536 1314 524 1307 l 435 1179 b 360 1128 406 1138 385 1128 b 271 1238 306 1128 271 1167 b 360 1340 271 1290 294 1335 b 549 1349 422 1346 486 1350 b 738 1340 611 1350 675 1346 b 826 1238 803 1335 826 1290 b 738 1128 826 1167 792 1128 b 663 1179 713 1128 692 1138 l 585 1292 b 549 1314 574 1307 561 1314 m 757 938 b 1065 929 751 1131 1069 1118 b 981 736 1064 872 1019 799 l 640 178 b 404 -21 585 86 504 -21 b 397 276 200 -21 176 276 l 528 276 b 593 346 622 276 614 318 l 165 918 b 96 881 126 969 76 932 l 158 718 b 121 594 185 649 165 610 b 50 643 101 588 65 603 b 231 1076 0 775 28 1076 b 408 950 310 1076 347 1038 l 688 547 b 768 565 740 472 769 521 "},"ÿ":{"ha":1071,"x_min":0,"x_max":0,"o":"m 396 1160 b 288 1224 322 1147 299 1181 b 424 1354 267 1304 353 1343 b 519 1288 465 1361 506 1346 b 396 1160 540 1204 467 1171 m 647 1183 b 590 1297 578 1214 576 1254 b 776 1332 617 1375 711 1361 b 821 1224 815 1314 840 1279 b 647 1183 792 1142 711 1154 m 757 938 b 1065 929 751 1131 1069 1118 b 981 736 1064 872 1019 799 l 640 178 b 404 -21 585 86 504 -21 b 397 276 200 -21 176 276 l 528 276 b 593 346 622 276 614 318 l 165 918 b 96 881 126 969 76 932 l 158 718 b 121 594 185 649 165 610 b 50 643 101 588 65 603 b 231 1076 0 775 28 1076 b 408 950 310 1076 347 1038 l 688 547 b 768 565 740 472 769 521 "},"Ỳ":{"ha":1071,"x_min":0,"x_max":0,"o":"m 335 1165 b 253 1288 256 1181 236 1233 b 411 1328 272 1353 356 1374 l 614 1161 b 589 1117 632 1146 618 1111 m 757 938 b 1065 929 751 1131 1069 1118 b 981 736 1064 872 1019 799 l 640 178 b 404 -21 585 86 504 -21 b 397 276 200 -21 176 276 l 528 276 b 593 346 622 276 614 318 l 165 918 b 96 881 126 969 76 932 l 158 718 b 121 594 185 649 165 610 b 50 643 101 588 65 603 b 231 1076 0 775 28 1076 b 408 950 310 1076 347 1038 l 688 547 b 768 565 740 472 769 521 "},"Z":{"ha":1150,"x_min":0,"x_max":0,"o":"m 961 268 b 1072 132 1044 239 1072 179 b 932 -22 1072 60 1026 -22 b 753 61 883 -22 810 1 l 483 342 b 433 369 472 353 450 369 b 393 285 408 369 393 350 l 393 190 b 244 -19 393 86 344 -19 b 75 118 144 -19 75 40 b 139 251 75 160 93 206 l 813 922 b 753 996 854 964 807 1029 l 394 782 b 214 721 328 742 265 721 b 69 886 133 721 76 772 b 288 1056 61 1008 161 1056 l 813 1056 b 1081 886 988 1056 1081 979 b 840 639 1081 801 1001 707 l 508 499 b 508 406 458 478 456 421 "},"Ź":{"ha":1150,"x_min":0,"x_max":0,"o":"m 518 1117 b 493 1161 489 1111 475 1146 l 696 1328 b 854 1288 751 1374 835 1353 b 772 1165 871 1233 851 1181 m 961 268 b 1072 132 1044 239 1072 179 b 932 -22 1072 60 1026 -22 b 753 61 883 -22 810 1 l 483 342 b 433 369 472 353 450 369 b 393 285 408 369 393 350 l 393 190 b 244 -19 393 86 344 -19 b 75 118 144 -19 75 40 b 139 251 75 160 93 206 l 813 922 b 753 996 854 964 807 1029 l 394 782 b 214 721 328 742 265 721 b 69 886 133 721 76 772 b 288 1056 61 1008 161 1056 l 813 1056 b 1081 886 988 1056 1081 979 b 840 639 1081 801 1001 707 l 508 499 b 508 406 458 478 456 421 "},"Ž":{"ha":1150,"x_min":0,"x_max":0,"o":"m 567 1163 b 603 1185 579 1163 592 1169 l 681 1297 b 756 1349 710 1339 731 1349 b 844 1239 810 1349 844 1310 b 756 1136 844 1186 821 1142 b 567 1128 693 1131 629 1126 b 378 1136 504 1126 440 1131 b 289 1239 313 1142 289 1186 b 378 1349 289 1310 324 1349 b 453 1297 403 1349 424 1339 l 531 1185 b 567 1163 542 1169 554 1163 m 961 268 b 1072 132 1044 239 1072 179 b 932 -22 1072 60 1026 -22 b 753 61 883 -22 810 1 l 483 342 b 433 369 472 353 450 369 b 393 285 408 369 393 350 l 393 190 b 244 -19 393 86 344 -19 b 75 118 144 -19 75 40 b 139 251 75 160 93 206 l 813 922 b 753 996 854 964 807 1029 l 394 782 b 214 721 328 742 265 721 b 69 886 133 721 76 772 b 288 1056 61 1008 161 1056 l 813 1056 b 1081 886 988 1056 1081 979 b 840 639 1081 801 1001 707 l 508 499 b 508 406 458 478 456 421 "},"Ż":{"ha":1150,"x_min":0,"x_max":0,"o":"m 521 1132 b 432 1254 435 1153 424 1200 b 643 1332 447 1351 560 1353 b 717 1214 692 1319 729 1285 b 521 1132 701 1111 603 1111 m 961 268 b 1072 132 1044 239 1072 179 b 932 -22 1072 60 1026 -22 b 753 61 883 -22 810 1 l 483 342 b 433 369 472 353 450 369 b 393 285 408 369 393 350 l 393 190 b 244 -19 393 86 344 -19 b 75 118 144 -19 75 40 b 139 251 75 160 93 206 l 813 922 b 753 996 854 964 807 1029 l 394 782 b 214 721 328 742 265 721 b 69 886 133 721 76 772 b 288 1056 61 1008 161 1056 l 813 1056 b 1081 886 988 1056 1081 979 b 840 639 1081 801 1001 707 l 508 499 b 508 406 458 478 456 421 "},"ß":{"ha":1197,"x_min":0,"x_max":0,"o":"m 1074 343 b 728 -21 1243 181 1051 -21 b 469 151 565 -21 461 49 b 690 253 478 256 589 307 l 938 122 b 988 251 1038 71 1086 196 l 699 418 b 543 628 568 496 524 556 b 838 711 565 714 650 738 b 925 756 889 704 919 719 b 829 831 931 786 889 817 l 514 907 b 335 774 374 942 326 883 l 386 167 b 229 -19 396 56 332 -19 b 94 211 110 -19 58 68 l 253 833 b 503 1056 297 1010 349 1056 l 878 1056 b 1142 908 1057 1056 1142 1008 b 988 713 1142 842 1097 786 l 939 681 b 907 501 851 624 842 564 "},"º":{"ha":722,"x_min":0,"x_max":0,"o":"m 369 1076 b 633 821 543 1076 633 989 b 369 568 633 653 543 568 b 89 821 196 568 89 653 b 369 1076 89 989 196 1076 m 489 794 b 465 892 522 832 511 871 l 332 951 b 243 875 272 978 219 949 l 294 718 b 394 692 308 675 361 656 m 138 306 b 140 361 101 307 92 346 l 457 463 b 608 410 554 493 596 461 b 511 296 622 354 596 293 "},"А":{"ha":1111,"x_min":0,"x_max":0,"o":"m 622 324 b 763 411 701 325 754 340 l 822 903 b 736 1017 832 979 794 1028 b 607 857 678 1006 628 900 l 439 513 b 265 403 394 421 317 403 b 117 557 183 403 117 471 b 222 722 117 617 158 671 l 501 944 b 763 1076 622 1040 672 1076 b 921 922 846 1076 903 1017 l 1047 254 b 886 -21 1076 99 1029 -21 b 718 136 772 -21 718 51 l 718 208 b 629 253 718 285 678 294 l 493 136 b 213 -21 429 82 326 -21 b 42 156 132 -21 42 25 b 264 315 42 267 142 313 "},"Б":{"ha":1196,"x_min":0,"x_max":0,"o":"m 76 396 b 557 1056 76 954 197 1056 l 883 1056 b 1140 894 1054 1056 1140 1008 b 810 818 1140 774 972 688 l 632 961 b 482 939 567 1014 526 1007 l 171 468 b 244 404 132 410 179 354 l 571 651 b 939 629 703 751 810 740 l 1018 561 b 1139 332 1082 507 1139 438 b 674 -21 1139 124 969 -21 b 76 396 243 -21 76 168 m 261 329 b 206 274 224 319 206 300 b 272 226 206 249 225 226 l 878 231 b 1051 375 997 232 1051 282 b 854 493 1051 464 974 526 "},"В":{"ha":1200,"x_min":0,"x_max":0,"o":"m 800 672 b 736 624 758 674 736 649 b 775 578 736 604 749 582 l 926 554 b 1144 328 1110 525 1144 415 b 683 -21 1144 119 954 -21 b 63 522 261 -21 63 210 b 589 1056 63 863 263 1056 l 764 1056 b 1136 863 1025 1056 1136 1008 b 917 667 1136 738 1026 661 m 901 231 b 1057 339 1003 232 1057 283 b 872 436 1057 424 989 460 l 371 336 b 279 369 319 326 288 343 b 324 457 268 406 282 432 l 744 707 b 807 942 865 779 863 875 b 489 869 742 1019 603 1024 l 207 486 b 185 324 168 432 165 372 b 351 226 208 264 265 226 "},"Г":{"ha":924,"x_min":0,"x_max":0,"o":"m 99 801 b 336 1056 99 967 147 1056 l 693 1056 b 885 797 854 1056 908 967 l 856 585 b 708 396 836 440 792 396 b 663 571 611 396 576 514 l 785 653 b 785 740 825 679 822 722 l 313 964 b 194 856 235 1001 165 936 l 408 260 b 267 -21 474 76 383 -21 b 97 196 158 -21 97 28 "},"Ѓ":{"ha":924,"x_min":0,"x_max":0,"o":"m 360 1117 b 335 1161 331 1111 317 1146 l 538 1328 b 696 1288 593 1374 676 1353 b 614 1165 713 1233 693 1181 m 99 801 b 336 1056 99 967 147 1056 l 693 1056 b 885 797 854 1056 908 967 l 856 585 b 708 396 836 440 792 396 b 663 571 611 396 576 514 l 785 653 b 785 740 825 679 822 722 l 313 964 b 194 856 235 1001 165 936 l 408 260 b 267 -21 474 76 383 -21 b 97 196 158 -21 97 28 "},"Ґ":{"ha":807,"x_min":0,"x_max":0,"o":"m 92 883 b 390 1053 92 1056 224 1113 l 631 967 b 667 1067 700 942 736 1039 l 528 1124 b 571 1326 417 1169 438 1326 b 746 1111 672 1326 725 1274 l 778 860 b 467 753 801 671 586 596 l 299 974 b 165 906 240 1050 133 993 l 401 260 b 265 -21 465 85 379 -21 b 90 196 154 -21 90 28 "},"Д":{"ha":1467,"x_min":0,"x_max":0,"o":"m 14 289 b 147 457 6 399 76 457 b 289 307 214 457 282 408 l 299 169 b 404 178 304 99 410 100 l 360 792 b 581 1056 347 971 438 1056 l 1047 1056 b 1211 754 1219 1056 1276 918 l 982 175 b 1089 136 954 104 1058 60 l 1165 329 b 1301 440 1194 404 1244 440 b 1425 281 1365 440 1425 385 l 1425 -65 b 1265 -278 1425 -228 1365 -278 b 1222 -51 1144 -278 1106 -121 l 1343 21 b 1285 108 1397 53 1353 146 l 1149 33 b 1006 0 1115 15 1069 0 l 485 0 b 281 46 408 0 331 18 l 172 104 b 121 15 107 139 60 47 l 257 -57 b 208 -278 372 -118 344 -278 b 39 -65 103 -278 50 -228 m 481 453 b 522 267 436 371 442 317 l 786 103 b 917 171 850 64 915 94 l 928 889 b 740 931 929 1007 799 1038 "},"Е":{"ha":1138,"x_min":0,"x_max":0,"o":"m 933 199 b 1061 122 1038 208 1061 167 b 728 -22 1061 35 976 -22 b 69 374 372 -22 69 121 b 324 511 69 500 188 567 l 601 397 b 638 461 665 371 693 422 l 224 749 b 126 894 161 793 126 843 b 478 1075 126 1033 293 1075 b 953 1007 664 1076 872 1044 b 1061 849 1026 972 1065 928 b 875 774 1057 765 994 732 l 307 972 b 201 908 239 996 201 939 b 278 825 201 874 213 846 l 819 653 b 961 497 942 614 961 549 b 819 354 961 431 925 367 l 322 293 b 206 214 238 282 206 254 b 322 144 206 175 242 138 "},"Ѐ":{"ha":1138,"x_min":0,"x_max":0,"o":"m 396 1165 b 314 1288 317 1181 297 1233 b 472 1328 333 1353 417 1374 l 675 1161 b 650 1117 693 1146 679 1111 m 933 199 b 1061 122 1038 208 1061 167 b 728 -22 1061 35 976 -22 b 69 374 372 -22 69 121 b 324 511 69 500 188 567 l 601 397 b 638 461 665 371 693 422 l 224 749 b 126 894 161 793 126 843 b 478 1075 126 1033 293 1075 b 953 1007 664 1076 872 1044 b 1061 849 1026 972 1065 928 b 875 774 1057 765 994 732 l 307 972 b 201 908 239 996 201 939 b 278 825 201 874 213 846 l 819 653 b 961 497 942 614 961 549 b 819 354 961 431 925 367 l 322 293 b 206 214 238 282 206 254 b 322 144 206 175 242 138 "},"Ё":{"ha":1138,"x_min":0,"x_max":0,"o":"m 457 1160 b 349 1224 383 1147 360 1181 b 485 1354 328 1304 414 1343 b 581 1288 526 1361 567 1346 b 457 1160 601 1204 528 1171 m 708 1183 b 651 1297 639 1214 638 1254 b 838 1332 678 1375 772 1361 b 882 1224 876 1314 901 1279 b 708 1183 853 1142 772 1154 m 933 199 b 1061 122 1038 208 1061 167 b 728 -22 1061 35 976 -22 b 69 374 372 -22 69 121 b 324 511 69 500 188 567 l 601 397 b 638 461 665 371 693 422 l 224 749 b 126 894 161 793 126 843 b 478 1075 126 1033 293 1075 b 953 1007 664 1076 872 1044 b 1061 849 1026 972 1065 928 b 875 774 1057 765 994 732 l 307 972 b 201 908 239 996 201 939 b 278 825 201 874 213 846 l 819 653 b 961 497 942 614 961 549 b 819 354 961 431 925 367 l 322 293 b 206 214 238 282 206 254 b 322 144 206 175 242 138 "},"Ж":{"ha":1772,"x_min":0,"x_max":0,"o":"m 49 135 b 169 374 49 229 90 296 l 492 693 b 468 764 525 726 508 764 l 256 764 b 63 925 126 764 63 829 b 256 1076 63 1010 131 1076 b 565 774 406 1076 515 986 l 643 447 b 740 460 658 383 740 396 l 739 892 b 900 1076 739 1015 794 1076 b 992 831 1050 1076 1082 938 l 969 804 b 929 676 929 757 906 711 b 1085 707 961 631 1013 642 l 1381 972 b 1600 1076 1472 1056 1524 1076 b 1736 904 1693 1076 1750 988 b 1535 740 1719 807 1661 769 l 1167 657 b 1028 579 1092 640 1033 621 b 1083 499 1024 547 1036 525 l 1493 272 b 1568 332 1540 246 1581 292 l 1517 500 b 1579 601 1497 564 1536 599 b 1668 490 1626 603 1679 568 l 1618 143 b 1447 -21 1601 29 1536 -21 b 1240 132 1358 -21 1317 26 l 903 599 b 819 542 857 663 781 606 l 985 265 b 1035 122 1010 224 1035 181 b 888 -21 1035 42 967 -21 b 674 183 803 -21 749 32 l 513 510 b 399 482 478 581 399 569 l 399 204 b 213 -21 399 40 313 -21 b 49 135 115 -21 49 43 "},"З":{"ha":1168,"x_min":0,"x_max":0,"o":"m 76 307 b 211 481 76 392 107 481 b 335 326 285 481 335 431 l 335 129 b 436 63 335 75 382 36 l 996 331 b 911 492 1118 389 1053 561 l 661 369 b 483 606 443 263 339 478 l 781 867 b 753 1018 857 935 813 1018 b 613 949 700 1018 668 997 l 371 738 b 89 806 243 625 89 676 b 668 1074 89 949 324 1074 b 1082 858 982 1074 1082 957 b 857 701 1082 771 1006 696 l 717 707 b 713 604 650 710 642 608 l 961 588 b 1140 382 1074 581 1140 518 b 525 -19 1140 174 901 -19 b 76 307 203 -19 76 151 "},"И":{"ha":1211,"x_min":0,"x_max":0,"o":"m 110 800 b 322 1076 113 886 131 1076 b 382 794 500 1076 532 878 l 217 703 b 190 560 167 675 158 622 l 319 304 b 457 318 354 235 436 239 l 597 851 b 876 1076 639 1011 729 1076 b 1119 767 1047 1076 1126 974 l 1099 186 b 919 -21 1093 28 1003 -21 b 821 335 739 -21 756 171 l 1028 851 b 901 914 1064 942 958 1010 l 431 125 b 229 -21 361 8 307 -21 b 90 176 143 -21 86 43 "},"Й":{"ha":1211,"x_min":0,"x_max":0,"o":"m 610 1121 b 339 1281 451 1117 339 1157 b 410 1349 339 1326 376 1349 b 503 1283 451 1349 482 1332 b 610 1160 532 1215 550 1160 b 717 1283 669 1160 688 1215 b 810 1349 738 1332 768 1349 b 881 1281 843 1349 881 1326 b 610 1121 881 1157 768 1117 m 110 800 b 322 1076 113 886 131 1076 b 382 794 500 1076 532 878 l 217 703 b 190 560 167 675 158 622 l 319 304 b 457 318 354 235 436 239 l 597 851 b 876 1076 639 1011 729 1076 b 1119 767 1047 1076 1126 974 l 1099 186 b 919 -21 1093 28 1003 -21 b 821 335 739 -21 756 171 l 1028 851 b 901 914 1064 942 958 1010 l 431 125 b 229 -21 361 8 307 -21 b 90 176 143 -21 86 43 "},"Ѝ":{"ha":1211,"x_min":0,"x_max":0,"o":"m 396 1165 b 314 1288 317 1181 297 1233 b 472 1328 333 1353 417 1374 l 675 1161 b 650 1117 693 1146 679 1111 m 110 800 b 322 1076 113 886 131 1076 b 382 794 500 1076 532 878 l 217 703 b 190 560 167 675 158 622 l 319 304 b 457 318 354 235 436 239 l 597 851 b 876 1076 639 1011 729 1076 b 1119 767 1047 1076 1126 974 l 1099 186 b 919 -21 1093 28 1003 -21 b 821 335 739 -21 756 171 l 1028 851 b 901 914 1064 942 958 1010 l 431 125 b 229 -21 361 8 307 -21 b 90 176 143 -21 86 43 "},"К":{"ha":1197,"x_min":0,"x_max":0,"o":"m 300 1076 b 347 824 442 1076 438 931 l 325 797 b 286 674 288 751 267 704 b 440 697 322 617 371 644 l 803 972 b 1039 1076 893 1040 953 1076 b 1160 904 1117 1076 1174 988 b 958 740 1143 807 1085 768 l 524 646 b 389 585 469 635 396 626 b 442 500 383 554 394 522 l 925 268 b 992 332 965 249 1004 292 l 940 500 b 1003 601 921 564 960 599 b 1092 490 1050 603 1103 568 l 1042 143 b 864 -21 1025 25 947 -21 b 657 132 772 -21 738 36 l 276 585 b 193 528 221 650 150 594 l 367 263 b 401 108 394 221 413 175 b 226 -21 389 39 325 -21 b 83 171 126 -21 76 50 l 132 897 b 300 1076 142 1029 221 1076 "},"Ќ":{"ha":1197,"x_min":0,"x_max":0,"o":"m 551 1117 b 526 1161 522 1111 508 1146 l 729 1328 b 888 1288 785 1374 868 1353 b 806 1165 904 1233 885 1181 m 300 1076 b 347 824 442 1076 438 931 l 325 797 b 286 674 288 751 267 704 b 440 697 322 617 371 644 l 803 972 b 1039 1076 893 1040 953 1076 b 1160 904 1117 1076 1174 988 b 958 740 1143 807 1085 768 l 524 646 b 389 585 469 635 396 626 b 442 500 383 554 394 522 l 925 268 b 992 332 965 249 1004 292 l 940 500 b 1003 601 921 564 960 599 b 1092 490 1050 603 1103 568 l 1042 143 b 864 -21 1025 25 947 -21 b 657 132 772 -21 738 36 l 276 585 b 193 528 221 650 150 594 l 367 263 b 401 108 394 221 413 175 b 226 -21 389 39 325 -21 b 83 171 126 -21 76 50 l 132 897 b 300 1076 142 1029 221 1076 "},"Л":{"ha":1267,"x_min":0,"x_max":0,"o":"m 21 293 b 138 601 21 560 92 604 b 181 451 174 600 229 560 l 96 263 b 197 217 54 171 160 129 l 454 822 b 728 1056 519 978 569 1056 l 956 1056 b 1167 801 1119 1056 1163 950 l 1183 196 b 1013 -21 1188 42 1122 -21 b 933 276 853 -21 790 161 l 1069 386 b 1036 476 1115 424 1092 481 l 775 460 b 725 618 678 454 647 574 l 1036 793 b 929 944 1129 846 1060 1015 l 539 732 b 476 586 474 696 465 672 l 517 264 b 285 -21 538 97 461 -21 b 21 289 128 -21 21 65 "},"М":{"ha":1578,"x_min":0,"x_max":0,"o":"m 919 657 b 1238 1076 882 915 1018 1076 b 1485 649 1413 1076 1483 985 l 1488 186 b 1319 -21 1489 28 1397 -21 b 1167 140 1203 -21 1167 69 b 1213 342 1167 200 1197 288 l 1369 896 b 1217 928 1401 1011 1254 1051 l 997 203 b 818 -21 956 64 911 -21 b 628 175 754 -21 703 25 l 467 494 b 414 818 425 578 396 703 l 426 897 b 317 1004 438 968 381 1004 b 193 867 239 1004 193 946 b 224 735 193 828 211 765 l 415 264 b 294 -21 474 121 444 -21 b 90 364 113 -21 90 163 l 90 657 b 344 1078 90 969 183 1078 b 606 878 454 1078 546 1022 l 831 332 b 906 264 851 281 879 264 b 956 410 950 264 971 308 "},"Н":{"ha":1203,"x_min":0,"x_max":0,"o":"m 974 1076 b 1119 942 1053 1076 1128 1025 l 1036 169 b 842 -21 1025 69 990 -21 b 699 122 749 -21 699 51 b 775 279 699 167 710 218 l 904 401 b 946 483 935 429 946 461 b 849 514 946 522 896 525 l 321 410 b 249 361 260 397 249 382 b 321 265 249 328 286 303 b 389 122 365 217 389 167 b 225 -21 389 42 308 -21 b 85 160 146 -21 71 28 l 158 844 b 357 1076 169 944 208 1076 b 506 949 451 1076 506 1024 b 422 806 506 886 471 833 l 264 715 b 215 644 222 692 215 671 b 296 588 215 607 249 588 l 886 588 b 982 642 943 588 974 601 b 938 733 992 688 964 704 l 878 801 b 810 939 835 851 810 896 b 974 1076 810 1015 861 1076 "},"О":{"ha":1151,"x_min":0,"x_max":0,"o":"m 575 -21 b 83 531 253 -21 83 167 b 575 1076 83 894 253 1076 b 1068 531 899 1076 1068 894 b 575 -21 1068 167 899 -21 m 965 543 b 932 689 1013 600 999 663 l 406 900 b 247 742 294 944 207 872 l 435 143 b 599 100 457 71 546 38 "},"П":{"ha":1140,"x_min":0,"x_max":0,"o":"m 122 801 b 360 1056 132 950 196 1056 l 865 1056 b 1056 818 986 1056 1065 976 l 1019 219 b 818 -21 1010 69 950 -21 b 663 122 719 -21 663 39 b 757 338 663 196 688 253 l 925 543 b 975 654 967 593 975 622 b 872 764 975 699 951 732 l 394 956 b 297 772 257 1011 165 846 l 590 608 b 542 453 671 564 642 446 l 236 472 b 200 389 181 476 154 426 l 336 276 b 254 -21 479 158 400 -21 b 85 196 146 -21 75 28 "},"Р":{"ha":1119,"x_min":0,"x_max":0,"o":"m 639 1056 b 1078 624 943 1056 1078 906 b 781 258 1078 415 990 258 b 486 429 661 258 579 307 l 326 639 b 183 639 292 683 226 686 b 189 496 146 597 153 536 l 360 304 b 440 118 417 239 440 186 b 274 -21 440 21 381 -21 b 90 186 178 -21 90 11 l 90 785 b 356 1056 90 940 175 1056 m 294 768 b 343 706 294 744 308 724 l 825 461 b 971 582 965 390 1043 479 l 760 885 b 610 932 710 956 685 963 l 353 826 b 294 768 317 811 294 797 "},"С":{"ha":1167,"x_min":0,"x_max":0,"o":"m 563 -21 b 83 508 235 -21 83 211 b 626 1076 83 839 307 1076 b 1050 731 893 1076 1050 911 b 867 558 1050 633 1008 543 b 764 771 750 571 750 692 l 788 903 b 700 968 799 965 764 1007 l 251 696 b 253 596 197 663 194 613 l 503 526 b 525 314 601 499 642 376 l 449 274 b 624 89 254 171 497 -58 l 828 328 b 1069 279 936 454 1069 381 b 563 -21 1069 157 826 -21 "},"Т":{"ha":1063,"x_min":0,"x_max":0,"o":"m 753 238 b 631 -21 810 86 779 -21 b 467 203 497 -21 469 56 l 451 882 b 397 1006 450 969 435 1006 b 336 899 350 1006 336 960 l 336 838 b 169 558 336 646 296 554 b 14 724 81 561 14 638 b 418 1056 14 917 167 1056 l 893 1056 b 1083 901 1038 1056 1083 972 b 750 803 1083 742 878 661 l 594 976 b 553 999 581 992 565 999 b 529 888 515 999 501 967 "},"У":{"ha":1071,"x_min":0,"x_max":0,"o":"m 757 938 b 1065 929 751 1131 1069 1118 b 981 736 1064 872 1019 799 l 640 178 b 404 -21 585 86 504 -21 b 397 276 200 -21 176 276 l 528 276 b 593 346 622 276 614 318 l 165 918 b 96 881 126 969 76 932 l 158 718 b 121 594 185 649 165 610 b 50 643 101 588 65 603 b 231 1076 0 775 28 1076 b 408 950 310 1076 347 1038 l 688 547 b 768 565 740 472 769 521 "},"Ў":{"ha":1071,"x_min":0,"x_max":0,"o":"m 549 1121 b 278 1281 390 1117 278 1157 b 349 1349 278 1326 315 1349 b 442 1283 390 1349 421 1332 b 549 1160 471 1215 489 1160 b 656 1283 608 1160 626 1215 b 749 1349 676 1332 707 1349 b 819 1281 782 1349 819 1326 b 549 1121 819 1157 707 1117 m 757 938 b 1065 929 751 1131 1069 1118 b 981 736 1064 872 1019 799 l 640 178 b 404 -21 585 86 504 -21 b 397 276 200 -21 176 276 l 528 276 b 593 346 622 276 614 318 l 165 918 b 96 881 126 969 76 932 l 158 718 b 121 594 185 649 165 610 b 50 643 101 588 65 603 b 231 1076 0 775 28 1076 b 408 950 310 1076 347 1038 l 688 547 b 768 565 740 472 769 521 "},"Ф":{"ha":1679,"x_min":0,"x_max":0,"o":"m 81 650 b 358 1015 85 914 218 1015 b 575 858 463 1015 532 958 l 653 675 b 769 726 689 592 804 643 l 699 896 b 843 1085 647 1019 711 1085 b 1004 976 953 1085 1004 1032 b 926 856 1004 928 976 893 l 856 801 b 897 738 806 764 854 706 l 1129 913 b 1374 1015 1224 985 1289 1015 b 1603 658 1501 1015 1607 911 l 1599 415 b 1315 46 1594 164 1478 46 b 1082 193 1200 46 1135 100 l 978 376 b 879 319 938 446 839 390 l 969 161 b 829 -22 1028 58 958 -22 b 683 76 728 -22 683 19 b 758 200 683 126 715 163 l 800 236 b 758 293 839 271 796 321 l 564 151 b 308 46 481 90 408 46 b 76 414 182 46 72 153 m 1393 249 b 1521 365 1472 199 1561 283 l 1331 747 b 1190 801 1297 815 1253 831 l 965 696 b 960 521 888 660 885 568 m 261 775 b 154 654 178 818 106 736 l 385 268 b 560 239 428 196 485 183 l 738 371 b 732 532 793 413 793 500 "},"Х":{"ha":1108,"x_min":0,"x_max":0,"o":"m 768 890 b 931 1072 774 1028 835 1072 b 1078 953 1024 1072 1078 1015 b 988 742 1078 893 1074 840 l 683 396 b 649 326 657 367 649 347 b 708 275 650 301 660 275 l 928 274 b 1094 118 1046 272 1094 206 b 943 -24 1094 13 1004 -24 b 617 246 832 -24 750 24 l 493 451 b 438 431 481 472 444 465 l 382 139 b 215 -18 364 42 318 -18 b 146 250 50 -18 31 151 l 369 443 b 389 604 429 496 442 529 l 178 904 b 113 879 142 956 97 931 l 171 707 b 135 592 192 643 176 611 b 61 631 114 583 76 593 b 257 1074 8 758 33 1074 b 442 946 344 1074 386 1031 l 700 550 b 756 571 714 529 754 536 "},"Ч":{"ha":1114,"x_min":0,"x_max":0,"o":"m 304 1076 b 372 788 463 1076 496 917 l 157 564 b 233 456 99 504 158 426 l 738 650 b 774 767 796 672 800 719 l 743 822 b 858 1076 665 965 721 1076 b 1031 885 983 1076 1039 1010 l 986 163 b 788 -21 979 50 919 -21 b 644 114 701 -21 644 35 b 733 292 644 183 678 232 l 918 486 b 931 633 975 547 963 607 b 782 592 881 672 829 643 l 571 367 b 265 206 490 282 386 206 b 79 457 119 206 65 296 l 117 889 b 304 1076 128 1010 199 1076 "},"Ц":{"ha":1254,"x_min":0,"x_max":0,"o":"m 290 1076 b 440 932 385 1076 440 1017 b 367 722 440 872 414 810 l 206 428 b 167 324 175 371 167 354 b 261 271 167 278 206 253 l 735 421 b 793 546 790 439 807 478 l 732 847 b 893 1076 701 996 781 1076 b 1022 793 1033 1076 1086 957 l 778 169 b 882 136 750 97 849 51 l 958 329 b 1093 439 988 404 1033 439 b 1213 281 1156 439 1213 383 l 1213 -65 b 1046 -278 1213 -228 1139 -278 b 1003 -56 925 -278 886 -122 l 1131 17 b 1072 104 1185 47 1140 140 l 953 40 b 818 0 911 18 876 0 b 672 156 728 0 672 57 l 672 274 b 590 297 672 322 621 336 l 408 67 b 236 -21 367 13 315 -21 b 88 218 135 -21 78 49 l 124 889 b 290 1076 131 1021 186 1076 "},"Ш":{"ha":1563,"x_min":0,"x_max":0,"o":"m 122 889 b 289 1076 129 1021 185 1076 b 432 932 376 1076 432 1017 b 358 722 432 872 406 808 l 188 411 b 365 321 106 263 293 190 l 717 958 b 871 1076 767 1049 808 1076 b 964 840 974 1076 1018 967 l 790 436 b 764 335 765 379 764 365 b 853 283 764 296 806 263 l 1117 399 b 1193 521 1175 424 1193 460 l 1192 874 b 1365 1076 1192 1006 1261 1076 b 1481 794 1496 1076 1572 947 l 1257 422 b 1275 347 1236 388 1244 361 l 1378 303 b 1528 124 1472 263 1528 219 b 1382 -21 1528 36 1474 -21 b 1217 132 1294 -21 1239 19 l 1189 276 b 1092 286 1176 342 1121 343 l 996 96 b 840 -21 961 26 915 -21 b 707 142 760 -21 714 32 l 685 500 b 556 500 679 599 567 597 l 522 217 b 279 -21 501 36 410 -21 b 86 219 154 -21 78 64 "},"Щ":{"ha":1703,"x_min":0,"x_max":0,"o":"m 122 889 b 289 1076 129 1021 185 1076 b 432 932 376 1076 432 1017 b 358 722 432 872 406 808 l 188 411 b 365 321 106 263 294 193 l 717 958 b 871 1076 767 1049 808 1076 b 964 840 974 1076 1018 967 l 790 436 b 764 335 765 379 764 365 b 853 283 764 296 806 264 l 1176 421 b 1235 546 1229 443 1246 478 l 1182 857 b 1342 1076 1157 1007 1231 1076 b 1471 793 1482 1076 1536 956 l 1222 174 b 1329 135 1190 94 1296 53 l 1411 340 b 1546 446 1442 417 1488 446 b 1661 294 1606 446 1661 393 l 1661 -65 b 1494 -278 1661 -228 1601 -278 b 1451 -56 1374 -278 1335 -122 l 1579 17 b 1521 104 1633 47 1589 142 l 1411 43 b 1265 0 1369 19 1324 0 b 1121 161 1178 0 1121 47 l 1121 242 b 1028 258 1121 303 1050 318 l 964 89 b 831 -21 936 14 897 -21 b 701 142 756 -21 707 32 l 685 500 b 557 500 681 599 568 597 l 525 217 b 279 -21 504 36 410 -21 b 86 219 154 -21 78 64 "},"Џ":{"ha":1146,"x_min":0,"x_max":0,"o":"m 126 838 b 328 1078 135 988 196 1078 b 483 935 426 1078 483 1018 b 376 731 483 861 451 815 l 221 557 b 168 450 178 508 168 483 b 274 336 168 404 194 376 l 753 92 b 856 272 886 24 979 208 l 556 426 b 604 582 475 468 504 589 l 910 563 b 946 646 965 558 988 604 l 810 781 b 892 1078 678 911 746 1078 b 1061 861 1000 1078 1071 1029 l 1022 207 b 710 -4 1010 -1 846 -68 l 686 7 b 606 -44 644 26 606 4 l 606 -86 b 415 -278 606 -206 536 -278 b 272 -165 319 -278 272 -231 b 389 -25 272 -100 313 -53 l 511 19 b 471 115 574 42 543 142 l 342 69 b 90 232 174 10 81 65 "},"Ь":{"ha":1119,"x_min":0,"x_max":0,"o":"m 382 0 b 90 286 186 0 82 122 l 119 835 b 314 1076 129 1017 200 1076 b 454 935 403 1076 454 1014 b 365 756 454 874 422 824 l 200 560 b 186 419 165 519 149 461 b 335 432 229 372 297 388 l 499 626 b 808 824 600 746 692 824 b 1078 463 950 824 1079 674 b 621 0 1076 204 907 0 m 294 288 b 353 225 294 258 317 242 l 571 124 b 732 171 646 89 679 100 l 978 500 b 863 626 1044 590 967 682 l 343 350 b 294 288 308 332 294 311 "},"Ъ":{"ha":1301,"x_min":0,"x_max":0,"o":"m 982 642 b 1246 361 1175 642 1246 507 b 725 -21 1246 82 967 -21 b 210 281 406 -21 210 81 b 350 556 210 367 260 454 l 626 867 b 500 949 696 944 576 1033 l 354 788 b 42 865 225 646 42 694 b 285 1056 42 988 99 1056 l 799 1056 b 949 932 893 1056 949 1001 b 885 793 949 897 935 849 l 811 711 b 851 642 779 676 799 642 m 1085 213 b 1167 263 1149 213 1167 238 b 1132 306 1167 278 1154 288 l 849 547 b 665 551 769 614 726 599 l 328 294 b 306 250 314 283 306 264 b 360 207 306 226 324 207 "},"Ы":{"ha":1569,"x_min":0,"x_max":0,"o":"m 110 799 b 321 1056 135 996 208 1056 b 400 764 453 1056 519 919 l 188 486 b 165 324 146 432 146 372 b 332 226 189 264 246 225 l 825 231 b 981 339 926 232 981 283 b 796 435 981 424 913 461 l 351 336 b 260 369 300 325 268 343 b 304 457 249 406 263 431 l 1178 1028 b 1485 882 1319 1119 1496 1089 l 1449 179 b 1279 -21 1443 78 1415 -21 b 1169 251 1149 -21 1088 101 l 1413 697 b 1369 774 1439 746 1421 782 l 744 668 b 683 618 703 661 683 643 b 738 569 683 593 700 575 l 850 554 b 1068 328 1035 529 1068 415 b 615 -21 1068 119 878 -21 b 75 522 242 -21 35 197 "},"Љ":{"ha":1868,"x_min":0,"x_max":0,"o":"m 21 293 b 140 601 21 560 92 603 b 181 451 174 600 229 558 l 96 263 b 197 217 53 168 160 129 l 454 822 b 728 1056 519 978 569 1056 l 1060 1056 b 1226 931 1171 1056 1226 996 b 1132 776 1226 874 1190 817 l 1019 699 b 1072 597 951 651 997 567 l 1304 693 b 1543 765 1418 740 1475 765 b 1826 382 1703 765 1826 615 b 1332 -21 1826 138 1653 -21 b 913 293 992 -21 913 83 l 913 910 b 824 953 913 976 872 1001 l 451 574 b 432 419 394 517 399 489 l 482 317 b 307 -21 571 133 501 -21 b 21 289 128 -21 21 65 m 1021 235 b 1094 131 974 175 1013 111 l 1699 271 b 1721 414 1783 290 1792 365 l 1443 608 b 1293 583 1372 657 1342 646 "},"Њ":{"ha":1710,"x_min":0,"x_max":0,"o":"m 158 844 b 361 1076 169 944 208 1076 b 519 949 461 1076 519 1024 b 422 806 519 886 481 839 l 264 715 b 215 644 222 692 215 671 b 296 588 215 607 249 588 l 683 588 b 789 706 769 588 797 629 l 774 849 b 939 1076 756 1011 804 1076 b 1011 806 1099 1076 1169 926 l 882 707 b 944 608 821 660 872 578 l 1146 693 b 1382 765 1260 742 1315 765 b 1668 382 1543 765 1668 615 b 1192 -21 1668 138 1494 -21 b 756 328 833 -21 728 83 l 767 428 b 682 507 774 493 742 524 l 321 410 b 249 361 260 393 249 382 b 326 265 249 328 289 300 b 406 122 381 217 406 167 b 238 -21 406 42 344 -21 b 85 160 146 -21 71 28 m 863 235 b 936 131 815 175 854 111 l 1540 271 b 1563 414 1625 290 1633 365 l 1285 608 b 1135 583 1214 657 1183 646 "},"Ѕ":{"ha":1158,"x_min":0,"x_max":0,"o":"m 506 -19 b 58 318 172 -19 58 157 b 172 483 58 394 89 483 b 281 368 239 483 281 426 l 281 132 b 406 71 281 65 322 31 l 892 306 b 986 407 950 333 1000 356 b 882 443 972 458 929 465 l 588 307 b 363 435 456 246 365 335 l 361 488 b 282 558 360 539 338 546 l 194 579 b 100 706 138 593 100 649 b 592 1079 100 947 347 1079 b 1069 726 832 1079 1069 976 b 950 560 1069 628 1032 560 b 889 725 896 560 814 613 l 950 817 b 949 876 967 842 963 867 b 851 881 926 892 897 890 l 253 751 b 183 683 193 739 179 713 b 250 632 188 653 206 640 l 957 504 b 1075 368 1036 490 1075 435 b 506 -19 1075 175 824 -19 "},"Є":{"ha":1153,"x_min":0,"x_max":0,"o":"m 608 -21 b 83 489 296 -21 83 197 b 646 1076 83 839 314 1076 b 1050 756 893 1076 1050 907 b 896 603 1050 653 994 603 b 765 782 801 603 744 672 l 788 903 b 700 968 799 965 764 1006 l 236 696 b 260 603 176 661 193 603 l 593 603 b 753 465 706 603 753 560 b 500 388 753 347 642 294 l 301 517 b 219 404 219 569 140 457 l 700 88 b 819 144 763 46 819 63 l 819 260 b 1069 272 819 449 1069 432 b 608 -21 1069 99 893 -21 "},"Э":{"ha":1153,"x_min":0,"x_max":0,"o":"m 497 -21 b 83 272 260 -21 83 99 b 333 260 83 432 333 449 l 333 144 b 453 88 333 63 390 46 l 933 404 b 851 517 1013 457 933 569 l 653 388 b 400 465 511 294 400 347 b 560 603 400 560 447 603 l 893 603 b 917 696 960 603 976 661 l 453 968 b 365 903 389 1006 354 965 l 388 782 b 257 603 408 672 351 603 b 103 756 158 603 103 653 b 560 1076 103 907 260 1076 b 1069 565 849 1076 1069 851 b 497 -21 1069 200 856 -21 "},"І":{"ha":596,"x_min":0,"x_max":0,"o":"m 56 747 b 121 847 56 769 86 807 l 278 1028 b 388 1076 307 1061 347 1076 b 526 944 458 1076 526 1028 b 413 807 526 867 479 831 l 260 754 b 233 722 242 749 233 736 b 269 700 233 699 257 699 l 364 711 b 460 504 504 728 551 610 l 194 201 b 165 151 172 176 165 165 b 215 111 165 124 189 100 l 382 183 b 517 119 440 208 508 200 b 308 -21 526 26 415 -21 b 114 224 150 -21 76 85 l 226 635 b 231 660 229 644 231 653 b 161 703 231 692 206 703 l 101 703 b 56 747 67 703 56 722 "},"Ї":{"ha":596,"x_min":0,"x_max":0,"o":"m 208 1160 b 100 1224 135 1147 111 1181 b 236 1354 79 1304 165 1343 b 332 1288 278 1361 318 1346 b 208 1160 353 1204 279 1171 m 460 1183 b 403 1297 390 1214 389 1254 b 589 1332 429 1375 524 1361 b 633 1224 628 1314 653 1279 b 460 1183 604 1142 524 1154 m 56 747 b 121 847 56 769 86 807 l 278 1028 b 388 1076 307 1061 347 1076 b 526 944 458 1076 526 1028 b 413 807 526 867 479 831 l 260 754 b 233 722 242 749 233 736 b 269 700 233 699 257 699 l 364 711 b 460 504 504 728 551 610 l 194 201 b 165 151 172 176 165 165 b 215 111 165 124 189 100 l 382 183 b 517 119 440 208 508 200 b 308 -21 526 26 415 -21 b 114 224 150 -21 76 85 l 226 635 b 231 660 229 644 231 653 b 161 703 231 692 206 703 l 101 703 b 56 747 67 703 56 722 "},"Ј":{"ha":731,"x_min":0,"x_max":0,"o":"m 547 247 b 579 392 604 258 624 315 l 390 715 b 326 917 358 769 326 857 b 479 1078 326 988 363 1078 b 647 871 557 1078 647 1029 l 647 346 b 394 -21 647 100 608 -21 b 42 271 182 -21 42 126 b 250 618 42 454 153 618 b 321 468 338 618 383 533 l 136 275 b 176 174 83 218 122 163 "},"Ћ":{"ha":1390,"x_min":0,"x_max":0,"o":"m 21 735 b 404 1056 21 917 174 1056 l 1021 1056 b 1210 901 1121 1056 1210 1008 b 1067 761 1210 819 1150 761 b 890 864 997 761 946 797 l 801 969 b 690 958 764 1014 711 1008 l 489 490 b 582 431 457 417 533 374 l 717 589 b 1071 644 826 718 932 725 l 1186 578 b 1314 336 1275 526 1315 454 l 1311 172 b 1129 -21 1310 50 1249 -21 b 988 107 1040 -21 988 36 b 1071 272 988 165 1015 217 l 1188 392 b 1113 518 1250 457 1196 542 l 636 383 b 619 283 590 371 579 321 l 672 235 b 592 -21 785 132 750 -21 b 411 203 479 -21 404 42 l 438 882 b 383 1006 440 969 421 1006 b 322 899 336 1006 322 960 l 322 838 b 163 569 322 650 265 569 b 21 735 79 569 21 640 "},"Ю":{"ha":1538,"x_min":0,"x_max":0,"o":"m 143 844 b 342 1076 151 944 193 1076 b 479 950 422 1076 479 1025 b 369 785 479 888 439 824 l 246 715 b 197 644 204 692 197 671 b 278 588 197 607 231 588 l 472 588 b 533 658 513 588 533 614 b 946 1076 533 893 672 1076 b 1454 574 1285 1076 1454 894 b 976 -21 1454 208 1264 -21 b 526 335 743 -21 601 60 l 500 432 b 401 474 488 481 453 501 l 313 426 b 240 361 254 396 240 382 b 321 265 240 328 285 301 b 396 122 368 217 396 167 b 235 -21 396 42 339 -21 b 85 160 146 -21 74 28 m 932 106 b 1103 143 999 43 1079 64 l 1288 774 b 1118 914 1322 890 1231 982 l 626 613 b 604 407 553 568 522 482 "},"Я":{"ha":1199,"x_min":0,"x_max":0,"o":"m 510 301 b 585 347 567 301 585 319 b 525 406 585 376 560 394 l 307 475 b 78 706 129 532 78 607 b 658 1076 78 868 303 1076 b 1115 497 963 1076 1115 907 b 894 -21 1115 65 1022 -21 b 796 243 764 -21 703 99 l 982 533 b 1022 664 1013 582 1022 622 b 808 826 1022 760 961 826 l 324 826 b 168 706 224 826 168 774 b 367 582 168 631 221 558 l 794 651 b 888 610 857 661 888 643 b 840 519 888 586 878 563 l 468 99 b 251 -21 388 7 318 -21 b 63 154 110 -21 63 67 b 225 299 63 240 132 297 "},"Ђ":{"ha":1376,"x_min":0,"x_max":0,"o":"m 21 735 b 404 1056 21 917 174 1056 l 1021 1056 b 1210 901 1121 1056 1210 1008 b 1067 761 1210 819 1150 761 b 890 864 997 761 946 797 l 801 969 b 690 958 764 1014 711 1008 l 489 490 b 582 431 457 417 533 374 l 717 589 b 1071 644 826 718 932 725 l 1186 578 b 1314 346 1275 526 1314 454 b 1190 68 1314 240 1267 165 l 1131 -8 b 813 38 1013 -158 813 -110 b 985 210 813 119 868 176 l 1150 257 b 1075 497 1306 301 1257 544 l 636 383 b 618 283 590 371 579 322 l 668 235 b 589 -21 778 128 740 -21 b 411 203 479 -21 404 42 l 438 882 b 383 1006 440 969 421 1006 b 322 899 336 1006 322 960 l 322 838 b 163 569 322 650 265 569 b 21 735 79 569 21 640 "},"ц":{"ha":1332,"x_min":0,"x_max":0,"o":"m 47 601 b 346 1076 47 906 104 1076 b 539 797 481 1076 539 1022 l 539 378 b 619 276 539 314 561 276 l 753 276 b 829 378 803 276 826 306 l 844 803 b 1029 1076 851 997 899 1076 b 1171 911 1118 1076 1171 1014 b 1119 728 1171 853 1147 786 l 857 181 b 957 136 819 101 917 51 l 1049 329 b 1182 440 1085 406 1129 440 b 1290 281 1240 440 1290 383 l 1290 -65 b 1124 -278 1290 -228 1217 -278 b 1081 -56 1003 -278 964 -122 l 1208 17 b 1150 104 1263 47 1218 140 l 1031 40 b 896 0 989 18 954 0 b 754 154 815 0 754 44 l 754 185 b 675 211 754 232 707 247 l 551 72 b 368 -21 496 10 446 -21 b 244 101 293 -21 244 26 b 328 250 244 157 274 203 l 453 358 b 482 421 474 376 482 399 b 453 513 482 451 475 471 l 276 840 b 201 904 253 885 228 904 b 139 840 172 904 139 886 b 196 650 139 792 183 689 b 117 519 222 568 189 519 b 47 601 81 519 47 551 "},"ш":{"ha":1829,"x_min":0,"x_max":0,"o":"m 47 601 b 346 1076 47 906 104 1076 b 536 797 481 1076 518 1022 l 568 404 b 643 303 574 332 599 303 l 724 303 b 810 394 765 303 804 325 l 844 881 b 985 1076 854 1011 901 1076 b 1125 842 1076 1076 1118 1010 l 1144 406 b 1236 304 1147 333 1181 304 l 1290 304 b 1375 406 1342 304 1368 342 l 1419 836 b 1588 1076 1436 997 1481 1076 b 1724 803 1686 1076 1786 1001 l 1604 422 b 1632 332 1592 381 1604 354 l 1707 272 b 1801 114 1758 231 1801 186 b 1639 -21 1801 38 1753 -21 b 1510 201 1500 -21 1485 83 l 1532 306 b 1439 344 1546 374 1485 406 b 971 -21 1351 228 1171 -21 b 935 207 861 -21 814 79 l 1032 310 b 1057 428 1074 354 1089 397 b 953 403 1026 457 997 450 l 843 288 b 354 -21 749 188 531 -21 b 340 229 260 -21 203 68 l 471 382 b 463 554 515 435 513 474 l 268 864 b 139 826 228 928 142 900 b 196 650 138 778 183 689 b 117 519 222 568 189 519 b 47 601 81 519 47 551 "},"щ":{"ha":1907,"x_min":0,"x_max":0,"o":"m 47 601 b 346 1076 47 906 104 1076 b 536 797 481 1076 518 1022 l 568 404 b 643 303 575 326 600 303 l 724 303 b 810 394 765 303 806 325 l 842 867 b 985 1076 851 1011 901 1076 b 1124 842 1076 1076 1115 1011 l 1146 406 b 1236 304 1150 333 1181 304 l 1328 304 b 1404 406 1378 304 1401 333 l 1419 803 b 1604 1076 1426 997 1474 1076 b 1746 911 1693 1076 1746 1014 b 1694 728 1746 853 1722 786 l 1432 181 b 1532 136 1394 101 1492 51 l 1624 329 b 1756 440 1660 406 1704 440 b 1865 281 1815 440 1865 383 l 1865 -65 b 1699 -278 1865 -228 1792 -278 b 1656 -56 1578 -278 1539 -122 l 1783 17 b 1725 104 1838 47 1793 140 l 1606 40 b 1471 0 1564 18 1529 0 b 1329 154 1390 0 1329 44 l 1329 203 b 1256 215 1329 238 1282 251 l 1189 125 b 967 -21 1122 33 1063 -21 b 926 215 856 -21 813 85 l 1015 317 b 1049 429 1056 363 1081 399 b 946 403 1018 458 986 444 l 838 288 b 354 -21 742 186 531 -21 b 340 229 260 -21 203 68 l 471 382 b 463 554 515 435 513 474 l 268 864 b 139 826 228 928 142 900 b 196 650 138 778 183 689 b 117 519 222 568 189 519 b 47 601 81 519 47 551 "},".":{"ha":392,"x_min":0,"x_max":0,"o":"m 350 85 b 242 -19 344 8 296 -19 b 42 118 150 -19 32 13 b 167 222 47 176 71 222 b 350 85 258 222 360 196 "},",":{"ha":400,"x_min":0,"x_max":0,"o":"m 78 128 b 269 201 96 225 192 229 b 351 58 351 172 365 108 b 313 3 344 32 329 15 l 76 -172 b 28 -137 54 -189 21 -174 "},":":{"ha":419,"x_min":0,"x_max":0,"o":"m 378 740 b 269 636 372 664 324 636 b 69 774 178 636 60 668 b 194 878 75 832 99 878 b 378 740 286 878 388 851 m 115 168 b 81 315 51 213 53 268 b 301 417 128 393 215 479 b 326 256 349 382 375 338 b 115 168 281 176 206 103 "},";":{"ha":400,"x_min":0,"x_max":0,"o":"m 97 543 b 64 689 35 586 36 643 b 285 789 111 768 200 853 b 310 629 332 754 360 711 b 97 543 263 550 188 476 m 78 128 b 269 201 96 225 192 229 b 351 58 351 172 365 108 b 313 3 344 32 329 15 l 76 -172 b 28 -137 54 -189 21 -174 "},"…":{"ha":833,"x_min":0,"x_max":0,"o":"m 167 222 b 350 85 258 222 360 196 b 242 -19 344 8 296 -19 b 42 118 150 -19 32 13 b 167 222 47 176 71 222 "},"!":{"ha":501,"x_min":0,"x_max":0,"o":"m 242 393 b 199 357 228 364 213 356 b 168 401 182 358 169 371 l 153 822 b 343 1076 149 956 179 1076 b 443 803 489 1076 497 913 m 331 147 b 274 7 356 75 324 29 b 35 53 189 -29 68 -47 b 107 199 17 108 19 160 b 331 147 192 235 294 253 "},"¡":{"ha":501,"x_min":0,"x_max":0,"o":"m 171 908 b 228 1049 146 981 178 1026 b 467 1003 313 1085 433 1103 b 394 857 485 947 482 896 b 171 908 310 821 207 803 m 260 663 b 303 699 274 692 289 700 b 333 654 319 697 332 685 l 349 233 b 158 -21 353 100 322 -21 b 58 253 13 -21 4 143 "},"?":{"ha":936,"x_min":0,"x_max":0,"o":"m 679 835 b 731 932 717 874 731 907 b 668 983 731 965 704 983 b 585 953 643 983 614 971 l 286 764 b 151 719 240 735 189 719 b 42 832 96 719 49 742 b 496 1079 28 1007 240 1079 b 908 800 708 1079 908 1003 b 665 500 908 656 814 588 l 344 310 b 321 303 336 304 328 303 b 285 342 299 303 285 321 b 299 378 285 353 289 367 m 574 75 b 465 -29 568 -1 519 -29 b 265 108 374 -29 256 3 b 390 213 271 167 294 213 b 574 75 482 213 583 186 "},"¿":{"ha":936,"x_min":0,"x_max":0,"o":"m 376 975 b 485 1079 382 1051 431 1079 b 685 942 576 1079 694 1047 b 560 838 679 883 656 838 b 376 975 468 838 367 864 m 271 215 b 219 118 233 176 219 143 b 282 67 219 85 246 67 b 365 97 307 67 336 79 l 664 286 b 799 331 710 315 761 331 b 908 218 854 331 901 308 b 454 -29 922 43 710 -29 b 42 250 242 -29 42 47 b 285 550 42 394 136 463 l 606 740 b 629 747 614 746 622 747 b 665 708 651 747 665 729 b 651 672 665 697 661 683 "},"·":{"ha":392,"x_min":0,"x_max":0,"o":"m 350 521 b 242 417 344 444 296 417 b 42 554 150 417 32 449 b 167 658 47 613 71 658 b 350 521 258 658 360 632 "},"•":{"ha":515,"x_min":0,"x_max":0,"o":"m 472 475 b 322 329 465 368 397 329 b 43 521 194 329 29 375 b 217 667 50 603 83 667 b 472 475 344 667 486 631 "},"*":{"ha":786,"x_min":0,"x_max":0,"o":"m 353 782 b 365 800 365 778 372 793 l 242 924 b 213 989 219 947 213 969 b 297 1060 213 1031 253 1060 b 376 979 349 1060 367 1028 l 401 825 b 413 817 403 819 408 817 b 422 824 417 817 419 818 l 540 1017 b 606 1065 561 1050 582 1064 b 678 1001 638 1067 678 1039 b 639 943 678 982 664 964 l 442 793 b 438 785 439 790 438 788 b 447 775 438 779 440 775 l 676 733 b 744 658 725 724 744 692 b 661 576 744 610 708 576 b 572 628 633 576 611 600 l 435 736 b 415 728 428 742 417 742 l 411 514 b 339 417 407 463 389 417 b 279 515 289 417 258 464 l 376 739 b 363 754 381 750 372 757 l 171 689 b 83 750 117 672 83 699 b 204 818 83 813 129 839 "},"#":{"ha":1196,"x_min":0,"x_max":0,"o":"m 782 699 b 733 710 761 664 725 672 l 799 994 b 940 964 833 1144 999 1063 m 626 668 b 499 603 613 610 575 581 l 381 636 b 458 767 176 694 347 914 l 542 656 b 583 685 554 639 592 629 l 542 957 b 694 964 519 1106 731 1122 m 686 507 b 679 556 643 508 644 538 l 1003 714 b 1038 494 1197 811 1268 488 m 183 419 b 44 488 90 417 56 431 b 154 603 32 549 71 626 l 581 479 b 574 431 611 471 610 432 m 653 354 b 782 421 667 413 707 443 l 958 368 b 882 238 1163 308 993 92 l 799 347 b 718 374 771 386 733 383 b 701 304 703 364 689 351 l 750 122 b 710 11 765 65 743 31 b 596 104 660 -18 574 8 m 503 347 b 550 326 522 374 561 374 l 490 79 b 386 -19 469 -10 438 -32 b 351 142 332 -7 292 60 "},"/":{"ha":589,"x_min":0,"x_max":0,"o":"m 69 4 b 18 25 46 -40 -1 -24 l 386 971 b 514 1074 422 1065 464 1086 b 557 925 583 1057 596 999 "},"\\":{"ha":589,"x_min":0,"x_max":0,"o":"m 553 131 b 510 -18 592 57 579 -1 b 382 85 460 -31 418 -10 l 14 1031 b 65 1051 -6 1079 42 1096 "},"(":{"ha":524,"x_min":0,"x_max":0,"o":"m 458 43 b 438 -136 521 -31 499 -108 b 257 -31 379 -162 319 -135 b 97 519 146 154 97 340 b 257 1069 97 699 146 885 b 438 1175 319 1174 379 1201 b 458 996 499 1147 521 1069 l 313 828 b 150 519 218 717 149 618 b 313 211 149 421 218 322 "},")":{"ha":524,"x_min":0,"x_max":0,"o":"m 267 1069 b 426 519 378 885 426 699 b 267 -31 426 340 378 154 b 86 -136 204 -135 144 -162 b 65 43 25 -108 3 -31 l 211 211 b 374 519 306 322 375 421 b 211 828 375 618 306 717 l 65 996 b 86 1175 3 1069 25 1147 b 267 1069 144 1201 204 1174 "},"{":{"ha":585,"x_min":0,"x_max":0,"o":"m 508 47 b 336 -15 654 -129 336 -247 l 336 128 b 251 279 336 214 296 256 l 157 331 b 28 519 67 383 28 426 b 157 708 28 613 67 656 l 251 760 b 336 911 296 783 336 825 l 336 1054 b 508 992 336 1286 654 1168 l 253 656 b 197 519 213 604 196 571 b 253 383 196 468 213 435 "},"}":{"ha":585,"x_min":0,"x_max":0,"o":"m 428 708 b 557 519 518 656 557 613 b 428 331 557 426 518 383 l 333 279 b 249 128 289 256 249 214 l 249 -15 b 76 47 249 -247 -69 -129 l 332 383 b 388 519 372 435 389 468 b 332 656 389 571 372 604 l 76 992 b 249 1054 -69 1168 249 1286 l 249 911 b 333 760 249 825 289 783 "},"[":{"ha":625,"x_min":0,"x_max":0,"o":"m 468 56 b 597 -46 540 86 597 28 b 396 -126 597 -147 504 -165 l 282 -85 b 111 211 174 -42 111 39 l 111 826 b 282 1122 111 999 174 1079 l 396 1164 b 597 1083 504 1201 597 1185 b 468 982 597 1010 540 953 l 322 1044 b 238 971 254 1076 211 1046 b 238 67 294 800 297 235 b 322 -7 211 -8 253 -36 "},"]":{"ha":625,"x_min":0,"x_max":0,"o":"m 303 -7 b 388 67 372 -36 414 -8 b 388 971 328 235 331 800 b 303 1044 414 1046 371 1076 l 157 982 b 28 1083 85 953 28 1010 b 229 1164 28 1185 121 1201 l 343 1122 b 514 826 451 1079 514 999 l 514 211 b 343 -85 514 39 451 -42 l 229 -126 b 28 -46 121 -165 28 -147 b 157 56 28 28 85 86 "},"-":{"ha":619,"x_min":0,"x_max":0,"o":"m 89 476 b 92 532 53 478 43 517 l 408 633 b 560 581 506 664 547 632 b 463 467 574 525 547 464 "},"–":{"ha":1078,"x_min":0,"x_max":0,"o":"m 89 476 b 92 532 53 476 42 525 l 867 633 b 1018 581 968 647 1006 632 b 921 467 1032 525 1006 465 "},"—":{"ha":1411,"x_min":0,"x_max":0,"o":"m 89 476 b 92 532 53 476 42 528 l 1200 633 b 1351 581 1301 643 1339 632 b 1254 467 1365 525 1339 465 "},"_":{"ha":1175,"x_min":0,"x_max":0,"o":"m 89 -178 b 92 -122 53 -178 42 -129 l 867 -21 b 1018 -74 968 -7 1006 -22 b 921 -187 1032 -129 1006 -189 "},"‚":{"ha":400,"x_min":0,"x_max":0,"o":"m 78 128 b 269 201 96 225 192 229 b 351 58 351 172 365 108 b 313 3 344 32 329 15 l 76 -172 b 28 -137 54 -189 21 -174 "},"„":{"ha":763,"x_min":0,"x_max":0,"o":"m 76 208 b 268 282 90 306 190 310 b 350 139 350 253 364 189 b 317 83 343 113 331 99 l 75 -175 b 26 -140 56 -196 21 -176 m 440 208 b 632 282 458 306 554 310 b 714 139 714 253 728 189 b 675 83 707 113 692 96 l 439 -92 b 390 -57 417 -108 383 -93 "},"“":{"ha":763,"x_min":0,"x_max":0,"o":"m 686 686 b 494 613 672 589 572 585 b 413 756 413 642 399 706 b 446 811 419 782 432 796 l 688 1069 b 736 1035 707 1090 742 1071 m 322 686 b 131 613 304 589 208 585 b 49 756 49 642 35 706 b 88 811 56 782 71 799 l 324 986 b 372 951 346 1003 379 988 "},"”":{"ha":763,"x_min":0,"x_max":0,"o":"m 76 989 b 268 1063 90 1086 190 1090 b 350 919 350 1033 364 969 b 317 864 343 893 331 879 l 75 606 b 26 640 56 585 21 604 m 440 989 b 632 1063 458 1086 554 1090 b 714 919 714 1033 728 969 b 675 864 707 893 692 876 l 439 689 b 390 724 417 672 383 688 "},"‘":{"ha":400,"x_min":0,"x_max":0,"o":"m 322 771 b 131 697 304 674 208 669 b 49 840 49 726 35 790 b 88 896 56 867 71 883 l 324 1071 b 372 1036 346 1088 379 1072 "},"’":{"ha":400,"x_min":0,"x_max":0,"o":"m 78 989 b 269 1063 96 1086 192 1090 b 351 919 351 1033 365 969 b 313 864 344 893 329 876 l 76 689 b 28 724 54 672 21 688 "},"«":{"ha":965,"x_min":0,"x_max":0,"o":"m 560 119 b 567 90 568 110 576 103 b 533 89 557 76 544 82 l 99 369 b 90 572 31 414 19 511 l 483 913 b 638 924 553 972 601 969 b 600 768 676 875 681 803 l 211 597 b 190 531 181 583 171 551 m 532 449 b 554 382 508 429 522 390 l 821 317 b 857 161 906 296 894 211 b 703 172 822 115 771 111 l 432 414 b 454 582 369 469 396 556 l 858 764 b 892 763 872 769 882 776 b 885 733 901 750 894 742 "},"»":{"ha":965,"x_min":0,"x_max":0,"o":"m 753 531 b 732 597 772 551 763 583 l 343 768 b 306 924 263 803 267 875 b 460 913 342 969 390 972 l 853 572 b 844 369 924 511 913 414 l 410 89 b 376 90 399 82 386 76 b 383 119 367 103 375 110 m 58 733 b 51 763 49 742 42 750 b 85 764 61 776 71 769 l 489 582 b 511 414 547 556 574 469 l 240 172 b 86 161 172 111 121 115 b 122 317 49 211 38 296 l 389 382 b 411 449 421 390 435 429 "},"‹":{"ha":833,"x_min":0,"x_max":0,"o":"m 272 497 b 324 342 272 403 283 363 b 442 367 360 324 394 322 l 486 408 b 601 467 531 450 576 467 b 731 310 671 467 731 419 b 590 164 731 208 656 164 b 421 217 538 164 493 175 l 207 338 b 74 497 121 386 74 431 b 207 657 74 564 121 608 l 421 778 b 590 831 493 819 538 831 b 731 685 656 831 731 786 b 601 528 731 575 671 528 b 486 586 576 528 531 544 l 442 628 b 324 653 394 672 360 671 b 272 497 283 632 272 592 "},"›":{"ha":833,"x_min":0,"x_max":0,"o":"m 561 497 b 510 653 561 592 550 632 b 392 628 474 671 439 672 l 347 586 b 232 528 303 544 257 528 b 103 685 163 528 103 575 b 243 831 103 786 178 831 b 413 778 296 831 340 819 l 626 657 b 760 497 713 608 760 564 b 626 338 760 431 713 386 l 413 217 b 243 164 340 175 296 164 b 103 310 178 164 103 208 b 232 467 103 419 163 467 b 347 408 257 467 303 450 l 392 367 b 510 342 439 322 474 324 b 561 497 550 363 561 403 "},"\"":{"ha":768,"x_min":0,"x_max":0,"o":"m 78 988 b 269 1061 96 1085 192 1089 b 351 918 351 1032 365 968 b 313 863 344 892 329 875 l 76 688 b 28 722 54 671 21 686 m 446 988 b 638 1061 464 1085 560 1089 b 719 918 719 1032 733 968 b 681 863 713 892 697 875 l 444 688 b 396 722 422 671 389 686 "},"'":{"ha":400,"x_min":0,"x_max":0,"o":"m 78 988 b 269 1061 96 1085 192 1089 b 351 918 351 1032 365 968 b 313 863 344 892 329 875 l 76 688 b 28 722 54 671 21 686 "},"$":{"ha":1232,"x_min":0,"x_max":0,"o":"m 961 504 b 1125 261 1122 433 1128 339 b 919 32 1119 139 1053 32 b 756 122 853 32 800 72 l 678 208 b 629 182 657 232 615 218 l 719 -51 b 607 -240 768 -178 689 -239 b 493 -28 515 -242 421 -169 l 564 111 b 539 158 582 146 579 185 l 393 65 b 104 275 254 -25 104 99 b 261 481 104 365 149 453 b 421 428 340 499 410 474 b 397 349 426 403 414 375 l 272 161 b 340 103 229 97 289 69 l 443 169 b 572 404 558 244 590 306 l 558 478 b 494 543 551 515 539 532 l 281 596 b 111 797 144 629 111 718 b 444 936 111 971 308 1050 l 521 871 b 572 894 544 850 581 868 l 519 1058 b 624 1242 482 1175 528 1242 b 724 1049 714 1242 790 1157 l 632 900 b 690 854 614 871 629 832 l 924 940 b 1158 832 1097 1004 1160 922 b 892 722 1157 760 1117 653 l 610 810 b 469 754 517 839 468 796 b 506 703 469 733 483 714 m 942 357 b 997 404 978 371 997 390 b 958 442 1000 419 981 436 l 728 504 b 644 461 668 521 650 504 l 635 394 b 774 292 618 281 672 253 "},"€":{"ha":1181,"x_min":0,"x_max":0,"o":"m 906 672 b 956 618 940 647 956 640 b 903 586 956 594 943 582 l 360 650 b 235 560 296 657 235 638 b 353 472 235 494 296 471 l 861 486 b 914 447 901 488 914 469 b 864 401 914 424 903 421 l 579 257 b 631 69 425 179 501 7 l 956 225 b 1114 147 1036 264 1117 218 b 740 -21 1111 76 1067 -21 b 313 207 483 -21 383 50 b 154 350 282 275 254 304 l 92 379 b 21 442 38 404 21 418 b 78 504 21 482 49 497 l 115 514 b 160 565 139 519 160 532 b 126 611 160 583 142 603 b 69 674 85 635 69 650 b 122 719 69 704 93 710 l 235 760 b 361 853 276 775 314 793 b 813 1076 482 1006 589 1076 b 1146 871 1058 1076 1146 974 b 1003 779 1146 786 1068 715 l 788 986 b 624 929 715 1056 624 994 b 675 836 624 897 636 864 "},"£":{"ha":1176,"x_min":0,"x_max":0,"o":"m 982 246 b 1039 332 1049 231 1072 283 l 978 422 b 1036 554 928 496 972 554 b 1139 435 1090 554 1156 513 l 1081 143 b 940 -21 1057 25 1017 -21 b 772 65 861 -21 806 19 l 683 190 b 599 186 650 236 619 228 l 569 126 b 361 -22 529 44 449 -22 b 14 336 158 -22 14 107 b 178 500 14 454 96 500 b 326 440 217 500 271 485 l 504 299 b 585 278 542 268 565 261 b 564 356 603 293 593 319 l 286 694 b 204 874 233 757 204 822 b 604 1076 204 983 271 1076 b 975 849 829 1076 982 996 b 758 774 969 765 878 701 l 456 957 b 271 864 364 1013 271 972 b 406 708 271 782 332 725 l 731 638 b 838 565 803 622 838 603 b 739 471 838 535 788 496 l 650 426 b 660 321 594 399 606 333 m 371 336 b 240 315 326 372 282 365 l 153 210 b 204 110 118 167 143 99 l 421 151 b 467 261 508 168 508 228 "},"=":{"ha":893,"x_min":0,"x_max":0,"o":"m 781 694 b 783 638 817 696 831 649 l 219 504 b 64 543 119 481 81 493 b 151 665 46 597 67 661 m 115 265 b 113 322 79 264 65 311 l 676 456 b 832 417 776 479 815 467 b 744 294 850 363 829 299 "},"^":{"ha":833,"x_min":0,"x_max":0,"o":"m 411 1033 b 368 1007 396 1033 381 1025 l 274 872 b 185 810 239 822 214 810 b 78 942 119 810 78 857 b 185 1065 78 1006 106 1058 b 411 1075 260 1072 336 1076 b 638 1065 486 1076 563 1072 b 744 942 715 1058 744 1006 b 638 810 744 857 703 810 b 547 872 607 810 582 822 l 454 1007 b 411 1033 440 1025 426 1033 "},"%":{"ha":1085,"x_min":0,"x_max":0,"o":"m 238 -4 b 193 -18 224 -21 206 -25 b 185 21 176 -8 178 8 l 793 975 b 763 1036 817 1017 786 1042 l 215 935 b 181 844 182 928 150 894 l 286 674 b 354 692 313 631 361 642 l 340 801 b 499 806 325 919 499 931 b 314 596 499 742 418 596 b 354 1075 -3 596 -36 1075 l 897 1076 b 997 888 983 1076 1078 982 m 817 371 b 1015 179 947 371 1015 306 b 817 -11 1015 53 947 -11 b 617 179 686 -11 617 53 b 817 371 617 306 686 371 m 717 207 b 735 133 690 179 700 149 l 835 89 b 901 146 879 69 919 90 l 863 264 b 788 283 851 296 813 311 "},"@":{"ha":1339,"x_min":0,"x_max":0,"o":"m 503 347 b 528 331 493 324 519 318 l 618 476 b 771 450 669 560 771 533 b 675 347 771 397 729 368 l 508 282 b 394 438 407 242 338 343 l 579 743 b 683 822 613 797 639 822 b 793 743 736 822 760 794 l 965 476 b 1107 365 1017 397 1057 365 b 1135 528 1158 365 1217 450 l 718 918 b 410 850 626 1004 456 1018 l 242 235 b 349 122 217 144 265 110 l 1003 218 b 1167 110 1096 232 1167 192 b 1044 0 1167 51 1124 0 l 500 1 b 83 401 208 3 83 122 b 718 1076 83 789 358 1076 b 1256 515 1088 1076 1256 765 b 1006 260 1256 378 1186 260 b 836 379 926 260 864 300 l 718 724 b 685 757 710 747 701 757 b 646 715 665 757 657 746 "},"&":{"ha":1293,"x_min":0,"x_max":0,"o":"m 1125 189 b 1049 -21 1214 103 1144 -21 b 899 67 988 -21 949 1 l 861 115 b 819 149 847 132 838 149 b 758 103 794 149 781 129 b 442 -21 679 10 569 -21 b 69 267 271 -21 69 29 b 276 507 69 401 115 494 l 429 519 b 472 556 461 522 472 538 b 436 594 472 574 458 589 b 121 842 204 653 121 718 b 514 1076 121 933 207 1079 b 900 833 831 1074 931 949 b 703 782 881 760 781 700 l 490 1003 b 372 931 422 1072 336 1007 l 561 590 b 671 481 606 511 621 481 b 801 564 722 481 740 500 l 1046 821 b 1169 883 1089 865 1132 883 b 1293 756 1240 883 1293 819 b 1174 625 1293 703 1258 650 l 861 535 b 838 464 819 522 800 500 m 601 444 b 442 444 540 514 521 506 l 207 261 b 231 179 167 229 171 179 l 743 183 b 764 258 799 183 797 219 "},"°":{"ha":565,"x_min":0,"x_max":0,"o":"m 283 1076 b 482 885 414 1076 482 1011 b 283 694 482 758 414 694 b 83 885 153 694 83 758 b 283 1076 83 1011 153 1076 m 183 913 b 201 839 157 885 167 854 l 301 794 b 368 851 346 775 388 796 l 329 969 b 254 989 318 1001 279 1017 "},"№":{"ha":1892,"x_min":0,"x_max":0,"o":"m 269 -21 b 83 319 88 -21 83 118 l 83 694 b 297 1076 83 1007 149 1076 b 551 860 407 1076 468 990 l 881 344 b 958 272 914 292 933 272 b 1010 318 993 272 1010 288 b 981 421 1010 343 999 375 l 853 750 b 821 917 818 839 821 883 b 974 1078 821 988 857 1078 b 1139 817 1111 1078 1153 944 l 1068 174 b 917 -21 1053 40 1007 -21 b 690 175 832 -21 789 39 l 460 494 b 364 810 404 571 346 694 l 376 889 b 294 996 388 960 344 996 b 171 858 217 996 171 938 b 196 726 171 819 183 757 l 385 264 b 269 -21 447 110 419 -21 m 1539 1076 b 1803 821 1713 1076 1803 989 b 1539 568 1803 653 1713 568 b 1258 821 1365 568 1258 653 b 1539 1076 1258 989 1365 1076 m 1658 794 b 1635 892 1692 832 1681 871 l 1501 951 b 1413 875 1442 978 1389 949 l 1464 718 b 1564 692 1478 675 1531 656 m 1307 306 b 1310 361 1271 307 1261 346 l 1626 463 b 1778 410 1724 493 1765 461 b 1681 296 1792 354 1765 293 "},"ʼ":{"ha":400,"x_min":0,"x_max":0,"o":"m 78 988 b 269 1061 96 1085 192 1089 b 351 918 351 1032 365 968 b 313 863 344 892 329 875 l 76 688 b 28 722 54 671 21 686 "},"̈":{"ha":0,"x_min":0,"x_max":0,"o":"m -571 1160 b -679 1224 -644 1147 -668 1181 b -543 1354 -700 1304 -614 1343 b -447 1288 -501 1361 -461 1346 b -571 1160 -426 1204 -500 1171 m -319 1183 b -376 1297 -389 1214 -390 1254 b -190 1332 -350 1375 -256 1361 b -146 1224 -151 1314 -126 1279 b -319 1183 -175 1142 -256 1154 "},"̇":{"ha":0,"x_min":0,"x_max":0,"o":"m -457 1132 b -546 1254 -543 1153 -554 1200 b -335 1332 -531 1351 -418 1353 b -261 1214 -286 1319 -249 1285 b -457 1132 -276 1111 -375 1111 "},"̀":{"ha":0,"x_min":0,"x_max":0,"o":"m -632 1165 b -714 1288 -711 1181 -731 1233 b -556 1328 -694 1353 -611 1374 l -353 1161 b -378 1117 -335 1146 -349 1111 "},"́":{"ha":0,"x_min":0,"x_max":0,"o":"m -474 1117 b -499 1161 -503 1111 -517 1146 l -296 1328 b -137 1288 -240 1374 -157 1353 b -219 1165 -121 1233 -140 1181 "},"̋":{"ha":0,"x_min":0,"x_max":0,"o":"m -304 1097 b -335 1139 -333 1089 -351 1121 l -156 1329 b 7 1310 -106 1382 -21 1372 b -58 1178 31 1258 18 1204 m -583 1114 b -612 1147 -607 1104 -625 1131 l -469 1325 b -328 1319 -431 1375 -356 1372 b -376 1201 -304 1276 -311 1228 "},"̂":{"ha":0,"x_min":0,"x_max":0,"o":"m -418 1314 b -454 1292 -431 1314 -443 1307 l -532 1179 b -607 1128 -561 1138 -582 1128 b -696 1238 -661 1128 -696 1167 b -607 1340 -696 1290 -672 1335 b -418 1349 -544 1346 -481 1350 b -229 1340 -356 1350 -292 1346 b -140 1238 -164 1335 -140 1290 b -229 1128 -140 1167 -175 1128 b -304 1179 -254 1128 -275 1138 l -382 1292 b -418 1314 -393 1307 -406 1314 "},"̌":{"ha":0,"x_min":0,"x_max":0,"o":"m -418 1163 b -382 1185 -406 1163 -393 1169 l -304 1297 b -229 1349 -275 1339 -254 1349 b -140 1239 -175 1349 -140 1310 b -229 1136 -140 1186 -164 1142 b -418 1128 -292 1131 -356 1126 b -607 1136 -481 1126 -544 1131 b -696 1239 -672 1142 -696 1186 b -607 1349 -696 1310 -661 1349 b -532 1297 -582 1349 -561 1339 l -454 1185 b -418 1163 -443 1169 -431 1163 "},"̆":{"ha":0,"x_min":0,"x_max":0,"o":"m -418 1121 b -689 1281 -576 1117 -689 1157 b -618 1349 -689 1326 -651 1349 b -525 1283 -576 1349 -546 1332 b -418 1160 -496 1215 -478 1160 b -311 1283 -358 1160 -340 1215 b -218 1349 -290 1332 -260 1349 b -147 1281 -185 1349 -147 1326 b -418 1121 -147 1157 -260 1117 "},"̊":{"ha":0,"x_min":0,"x_max":0,"o":"m -468 1135 b -585 1257 -581 1156 -594 1203 b -346 1335 -567 1354 -440 1350 b -244 1217 -279 1324 -232 1288 b -468 1135 -262 1114 -375 1118 m -387 1182 b -347 1246 -349 1193 -343 1218 b -451 1288 -354 1297 -411 1300 b -483 1225 -472 1281 -487 1263 b -387 1182 -476 1171 -428 1171 "},"̃":{"ha":0,"x_min":0,"x_max":0,"o":"m -371 1218 b -317 1218 -350 1196 -333 1193 l -264 1294 b -111 1268 -217 1363 -119 1340 b -311 1126 -99 1161 -182 1126 b -451 1208 -361 1126 -401 1147 l -478 1240 b -532 1240 -499 1265 -515 1265 l -585 1164 b -743 1183 -624 1107 -721 1111 b -537 1332 -776 1290 -667 1332 b -394 1244 -487 1332 -450 1307 "},"̄":{"ha":0,"x_min":0,"x_max":0,"o":"m -603 1165 b -664 1210 -644 1167 -664 1178 b -600 1263 -664 1240 -640 1257 l -283 1308 b -132 1256 -181 1324 -144 1307 b -229 1156 -118 1200 -144 1153 "},"̦":{"ha":0,"x_min":0,"x_max":0,"o":"m -517 -110 b -325 -36 -512 -11 -403 -8 b -282 -221 -226 -71 -203 -172 l -476 -340 b -525 -306 -501 -356 -526 -342 "},"̧":{"ha":0,"x_min":0,"x_max":0,"o":"m -669 -157 b -533 -107 -660 -89 -585 -64 l -501 -133 l -437 29 l -365 29 b -374 -53 -390 -43 -396 -53 b -296 -40 -353 -53 -332 -40 b -175 -147 -239 -40 -175 -87 b -518 -267 -175 -261 -336 -300 b -669 -157 -622 -246 -678 -214 m -361 -215 b -250 -150 -297 -215 -250 -182 b -297 -110 -250 -125 -268 -110 b -394 -140 -325 -110 -353 -114 b -361 -215 -429 -162 -414 -215 "},"̨":{"ha":0,"x_min":0,"x_max":0,"o":"m -508 49 b -442 110 -485 86 -469 110 b -337 31 -383 110 -337 67 b -354 1 -337 19 -339 8 l -469 -51 b -510 -106 -500 -65 -510 -81 b -446 -142 -510 -133 -486 -153 l -344 -115 b -212 -172 -283 -99 -212 -103 b -367 -278 -212 -239 -279 -278 b -561 -33 -525 -278 -639 -153 "},"¨":{"ha":833,"x_min":0,"x_max":0,"o":"m 263 1160 b 154 1224 189 1147 165 1181 b 290 1354 133 1304 219 1343 b 386 1288 332 1361 372 1346 b 263 1160 407 1204 333 1171 m 514 1183 b 457 1297 444 1214 443 1254 b 643 1332 483 1375 578 1361 b 688 1224 682 1314 707 1279 b 514 1183 658 1142 578 1154 "},"˙":{"ha":833,"x_min":0,"x_max":0,"o":"m 376 1132 b 288 1254 290 1153 279 1200 b 499 1332 303 1351 415 1353 b 572 1214 547 1319 585 1285 b 376 1132 557 1111 458 1111 "},"`":{"ha":833,"x_min":0,"x_max":0,"o":"m 201 1165 b 119 1288 122 1181 103 1233 b 278 1328 139 1353 222 1374 l 481 1161 b 456 1117 499 1146 485 1111 "},"´":{"ha":833,"x_min":0,"x_max":0,"o":"m 360 1117 b 335 1161 331 1111 317 1146 l 538 1328 b 696 1288 593 1374 676 1353 b 614 1165 713 1233 693 1181 "},"˝":{"ha":833,"x_min":0,"x_max":0,"o":"m 529 1097 b 499 1139 500 1089 482 1121 l 678 1329 b 840 1310 728 1382 813 1372 b 775 1178 864 1258 851 1204 m 250 1114 b 221 1147 226 1104 208 1131 l 364 1325 b 506 1319 403 1375 478 1372 b 457 1201 529 1276 522 1228 "},"ˆ":{"ha":833,"x_min":0,"x_max":0,"o":"m 415 1314 b 379 1292 403 1314 390 1307 l 301 1179 b 226 1128 272 1138 251 1128 b 138 1238 172 1128 138 1167 b 226 1340 138 1290 161 1335 b 415 1349 289 1346 353 1350 b 604 1340 478 1350 542 1346 b 693 1238 669 1335 693 1290 b 604 1128 693 1167 658 1128 b 529 1179 579 1128 558 1138 l 451 1292 b 415 1314 440 1307 428 1314 "},"ˇ":{"ha":833,"x_min":0,"x_max":0,"o":"m 415 1163 b 451 1185 428 1163 440 1169 l 529 1297 b 604 1349 558 1339 579 1349 b 693 1239 658 1349 693 1310 b 604 1136 693 1186 669 1142 b 415 1128 542 1131 478 1126 b 226 1136 353 1126 289 1131 b 138 1239 161 1142 138 1186 b 226 1349 138 1310 172 1349 b 301 1297 251 1349 272 1339 l 379 1185 b 415 1163 390 1169 403 1163 "},"˘":{"ha":833,"x_min":0,"x_max":0,"o":"m 415 1121 b 144 1281 257 1117 144 1157 b 215 1349 144 1326 182 1349 b 308 1283 257 1349 288 1332 b 415 1160 338 1215 356 1160 b 522 1283 475 1160 493 1215 b 615 1349 543 1332 574 1349 b 686 1281 649 1349 686 1326 b 415 1121 686 1157 574 1117 "},"˚":{"ha":833,"x_min":0,"x_max":0,"o":"m 365 1135 b 249 1257 253 1156 239 1203 b 488 1335 267 1354 393 1350 b 589 1217 554 1324 601 1288 b 365 1135 571 1114 458 1118 m 446 1182 b 486 1246 485 1193 490 1218 b 382 1288 479 1297 422 1300 b 350 1225 361 1281 346 1263 b 446 1182 357 1171 406 1171 "},"˜":{"ha":833,"x_min":0,"x_max":0,"o":"m 463 1218 b 517 1218 483 1196 500 1193 l 569 1294 b 722 1268 617 1363 714 1340 b 522 1126 735 1161 651 1126 b 382 1208 472 1126 432 1147 l 356 1240 b 301 1240 335 1265 318 1265 l 249 1164 b 90 1183 210 1107 113 1111 b 296 1332 57 1290 167 1332 b 439 1244 346 1332 383 1307 "},"¯":{"ha":833,"x_min":0,"x_max":0,"o":"m 231 1165 b 169 1210 189 1167 169 1178 b 233 1263 169 1240 193 1257 l 550 1308 b 701 1256 653 1324 689 1307 b 604 1156 715 1200 689 1153 "},"¸":{"ha":833,"x_min":0,"x_max":0,"o":"m 164 -157 b 300 -107 174 -89 249 -64 l 332 -133 l 396 29 l 468 29 b 460 -53 443 -43 438 -53 b 538 -40 481 -53 501 -40 b 658 -147 594 -40 658 -87 b 315 -267 658 -261 497 -300 b 164 -157 211 -246 156 -214 m 472 -215 b 583 -150 536 -215 583 -182 b 536 -110 583 -125 565 -110 b 439 -140 508 -110 481 -114 b 472 -215 404 -162 419 -215 "}}}
